<svg id="e5684d64-9fb3-4b6a-8a12-c65732734baa" data-name="Layer 1" xmlns="http://www.w3.org/2000/svg" viewBox="0 0 1040.94 538.01"><defs><style>.a7843716-dba6-44f8-9810-11942118cf87{fill:#61dafb;}.abcceb28-fa2b-4b12-a066-983d6e66ebd2,.af46507b-ffcf-40f0-903e-bdc94261acd1,.e8b04feb-2cc7-4a5d-b781-c3517448f96f{fill:none;stroke:#61dafb;}.af46507b-ffcf-40f0-903e-bdc94261acd1,.e8b04feb-2cc7-4a5d-b781-c3517448f96f{stroke-width:9px;}.abcceb28-fa2b-4b12-a066-983d6e66ebd2{stroke-miterlimit:10;stroke-width:23px;}</style></defs><path class="a7843716-dba6-44f8-9810-11942118cf87" d="M508.71,514.78H494.06c-2.12,0-3.63-.48-4.53-1.43a6.37,6.37,0,0,1-1.36-4.53V472.77c0-2.12.46-3.64,1.39-4.56s2.43-1.39,4.5-1.39H509.6a36.66,36.66,0,0,1,5.95.42,12.78,12.78,0,0,1,4.52,1.64,11.85,11.85,0,0,1,3,2.57,11.36,11.36,0,0,1,2.68,7.41q0,7.18-7.2,10.53,9.45,3,9.46,11.71a13.22,13.22,0,0,1-2.06,7.25,12.41,12.41,0,0,1-5.57,4.76,19.77,19.77,0,0,1-5,1.29A51.6,51.6,0,0,1,508.71,514.78Zm-10.83-40.67v12.4h8.9a17.76,17.76,0,0,0,5.61-.69,5.35,5.35,0,0,0,3-2.61,6,6,0,0,0,.82-3.08q0-3.63-2.59-4.83t-7.88-1.19ZM508,493.48H497.88v14h10.44q9.85,0,9.85-7.1a5.81,5.81,0,0,0-2.55-5.27Q513.07,493.48,508,493.48Z" transform="translate(-46.5 -56.99)"/><path class="a7843716-dba6-44f8-9810-11942118cf87" d="M546.88,502.7v7.46a5.78,5.78,0,0,1-1.28,4.08,4.26,4.26,0,0,1-3.24,1.35,4.08,4.08,0,0,1-3.17-1.37,5.87,5.87,0,0,1-1.24-4.06V485.3q0-6,4.35-6a3.62,3.62,0,0,1,3.2,1.41,7.63,7.63,0,0,1,1.08,4.15,15.6,15.6,0,0,1,3.29-4.15,6.77,6.77,0,0,1,4.5-1.41,11.45,11.45,0,0,1,5.46,1.41c1.77.93,2.65,2.18,2.65,3.73a3.73,3.73,0,0,1-3.56,3.76,11,11,0,0,1-2.38-.61,11.09,11.09,0,0,0-3.32-.6,4.84,4.84,0,0,0-3.2,1,6.65,6.65,0,0,0-1.93,3.06,21,21,0,0,0-1,4.82C547,497.75,546.88,500,546.88,502.7Z" transform="translate(-46.5 -56.99)"/><path class="a7843716-dba6-44f8-9810-11942118cf87" d="M574.08,475.12a4.74,4.74,0,0,1-3.19-1.14,4.44,4.44,0,0,1,0-6.36,4.53,4.53,0,0,1,3.15-1.23,4.7,4.7,0,0,1,3.08,1.11,4,4,0,0,1,1.34,3.24,4.07,4.07,0,0,1-1.31,3.22A4.5,4.5,0,0,1,574.08,475.12Zm4.42,9.23v25.81a5.78,5.78,0,0,1-1.28,4.06,4.2,4.2,0,0,1-3.23,1.37,4,4,0,0,1-3.19-1.4,5.94,5.94,0,0,1-1.23-4V484.61a5.74,5.74,0,0,1,1.23-4,4.12,4.12,0,0,1,3.19-1.34,4.28,4.28,0,0,1,3.23,1.34A5.21,5.21,0,0,1,578.5,484.35Z" transform="translate(-46.5 -56.99)"/><path class="a7843716-dba6-44f8-9810-11942118cf87" d="M589.94,510.16V471.43a6,6,0,0,1,1.19-4.06,4.07,4.07,0,0,1,3.22-1.37,4.23,4.23,0,0,1,3.28,1.36,5.88,5.88,0,0,1,1.24,4.07v38.73a5.83,5.83,0,0,1-1.26,4.08,4.26,4.26,0,0,1-3.26,1.35,4.05,4.05,0,0,1-3.19-1.4A6,6,0,0,1,589.94,510.16Z" transform="translate(-46.5 -56.99)"/><path class="a7843716-dba6-44f8-9810-11942118cf87" d="M610.3,510.16V471.43a6,6,0,0,1,1.2-4.06,4.06,4.06,0,0,1,3.22-1.37,4.21,4.21,0,0,1,3.27,1.36,5.83,5.83,0,0,1,1.25,4.07v38.73a5.83,5.83,0,0,1-1.26,4.08,4.26,4.26,0,0,1-3.26,1.35,4.05,4.05,0,0,1-3.19-1.4A5.94,5.94,0,0,1,610.3,510.16Z" transform="translate(-46.5 -56.99)"/><path class="a7843716-dba6-44f8-9810-11942118cf87" d="M635.19,475.12A4.71,4.71,0,0,1,632,474a4.43,4.43,0,0,1,0-6.36,4.55,4.55,0,0,1,3.16-1.23,4.68,4.68,0,0,1,3.07,1.11,4,4,0,0,1,1.34,3.24,4,4,0,0,1-1.31,3.22A4.47,4.47,0,0,1,635.19,475.12Zm4.41,9.23v25.81a5.78,5.78,0,0,1-1.27,4.06,4.21,4.21,0,0,1-3.24,1.37,4.05,4.05,0,0,1-3.19-1.4,5.94,5.94,0,0,1-1.23-4V484.61a5.74,5.74,0,0,1,1.23-4,4.14,4.14,0,0,1,3.19-1.34,4.29,4.29,0,0,1,3.24,1.34A5.21,5.21,0,0,1,639.6,484.35Z" transform="translate(-46.5 -56.99)"/><path class="a7843716-dba6-44f8-9810-11942118cf87" d="M673.61,510.56a27.17,27.17,0,0,1-6.26,3.77,17.52,17.52,0,0,1-6.79,1.26,13,13,0,0,1-6-1.35,10,10,0,0,1-4-3.68,9.54,9.54,0,0,1-1.41-5,9,9,0,0,1,2.32-6.25,11.66,11.66,0,0,1,6.38-3.47c.57-.13,2-.42,4.22-.88s4.17-.88,5.78-1.26,3.34-.85,5.21-1.39a9.24,9.24,0,0,0-1.42-5.19q-1.26-1.65-5.22-1.65a10.94,10.94,0,0,0-5.12.95,8.31,8.31,0,0,0-2.94,2.85c-.82,1.26-1.4,2.1-1.73,2.5a2.88,2.88,0,0,1-2.18.6,3.82,3.82,0,0,1-2.6-1,3.15,3.15,0,0,1-1.1-2.47,7.57,7.57,0,0,1,1.67-4.58,12,12,0,0,1,5.2-3.67,23.65,23.65,0,0,1,8.8-1.44,24.83,24.83,0,0,1,9.26,1.4,8.57,8.57,0,0,1,4.76,4.4,19.14,19.14,0,0,1,1.39,8c0,2.09,0,3.87,0,5.33s0,3.09,0,4.88a17.91,17.91,0,0,0,.83,5.25,16.21,16.21,0,0,1,.83,3.51,3.28,3.28,0,0,1-1.29,2.5,4.28,4.28,0,0,1-2.93,1.13,3.94,3.94,0,0,1-2.71-1.29A19.28,19.28,0,0,1,673.61,510.56ZM673,497.63a44,44,0,0,1-5.7,1.52q-3.75.81-5.19,1.18a7,7,0,0,0-2.75,1.47,3.79,3.79,0,0,0-1.31,3.06,4.52,4.52,0,0,0,1.54,3.45,5.7,5.7,0,0,0,4,1.43,10.57,10.57,0,0,0,4.9-1.16,7.76,7.76,0,0,0,3.28-3q1.22-2,1.21-6.67Z" transform="translate(-46.5 -56.99)"/><path class="a7843716-dba6-44f8-9810-11942118cf87" d="M701.18,484.22v1.08a15.67,15.67,0,0,1,5.15-4.56,13.76,13.76,0,0,1,6.43-1.46,12.77,12.77,0,0,1,6.31,1.54,9.72,9.72,0,0,1,4.16,4.35,10.23,10.23,0,0,1,1.14,3.53,35.77,35.77,0,0,1,.26,4.84v16.62a5.92,5.92,0,0,1-1.22,4.06,4.06,4.06,0,0,1-3.19,1.37,4.14,4.14,0,0,1-3.24-1.4,5.89,5.89,0,0,1-1.24-4V495.28a14.85,14.85,0,0,0-1.23-6.76q-1.23-2.34-4.89-2.34a7.25,7.25,0,0,0-4.35,1.43,8.12,8.12,0,0,0-2.88,3.91,27.68,27.68,0,0,0-.66,7.45v11.19a5.83,5.83,0,0,1-1.26,4.08,4.24,4.24,0,0,1-3.25,1.35,4.06,4.06,0,0,1-3.17-1.4,5.89,5.89,0,0,1-1.25-4V484.35a5.58,5.58,0,0,1,1.12-3.81,3.84,3.84,0,0,1,3-1.26,4.12,4.12,0,0,1,2.12.56,4,4,0,0,1,1.53,1.66A5.94,5.94,0,0,1,701.18,484.22Z" transform="translate(-46.5 -56.99)"/><path class="a7843716-dba6-44f8-9810-11942118cf87" d="M736.24,480.07h1V474.7c0-1.44,0-2.57.11-3.39a5.08,5.08,0,0,1,.64-2.11,4.12,4.12,0,0,1,1.5-1.49,4.32,4.32,0,0,1,2.2-.57,4.4,4.4,0,0,1,3.07,1.28,3.77,3.77,0,0,1,1.16,2.08,18.18,18.18,0,0,1,.25,3.48v6.09h3.27a4.22,4.22,0,0,1,2.89.89,3,3,0,0,1,1,2.31,2.58,2.58,0,0,1-1.42,2.52,9.24,9.24,0,0,1-4.07.72h-1.67v16.42a29,29,0,0,0,.14,3.23,3.34,3.34,0,0,0,.79,1.83,2.69,2.69,0,0,0,2.08.7,10.72,10.72,0,0,0,2.12-.28,11.68,11.68,0,0,1,2.1-.28,2.66,2.66,0,0,1,1.94.87,2.9,2.9,0,0,1,.87,2.14,3.58,3.58,0,0,1-2.35,3.31,16,16,0,0,1-6.78,1.14,11.75,11.75,0,0,1-6.34-1.4,6.51,6.51,0,0,1-2.83-3.9,26.23,26.23,0,0,1-.67-6.64V486.51H736a4.22,4.22,0,0,1-2.95-.92,3,3,0,0,1-1-2.32,2.9,2.9,0,0,1,1.06-2.31A4.73,4.73,0,0,1,736.24,480.07Z" transform="translate(-46.5 -56.99)"/><path class="a7843716-dba6-44f8-9810-11942118cf87" d="M817.7,500.38a14.13,14.13,0,0,1-2.24,7.82,14.88,14.88,0,0,1-6.56,5.43,24.55,24.55,0,0,1-10.24,2q-7.1,0-11.71-2.68a15.69,15.69,0,0,1-5.32-5.15,11.73,11.73,0,0,1-2-6.27,4.25,4.25,0,0,1,4.35-4.28,3.72,3.72,0,0,1,2.6,1,7.74,7.74,0,0,1,1.82,2.91,20,20,0,0,0,2,3.83,8,8,0,0,0,3,2.53,11,11,0,0,0,5.07,1,11.46,11.46,0,0,0,7-2,6,6,0,0,0,2.7-5,5.32,5.32,0,0,0-1.46-3.88,9.34,9.34,0,0,0-3.76-2.27,63.62,63.62,0,0,0-6.17-1.67,45.23,45.23,0,0,1-8.65-2.83,13.88,13.88,0,0,1-5.53-4.42,11.47,11.47,0,0,1-2-6.95,11.92,11.92,0,0,1,2.16-7,13.65,13.65,0,0,1,6.25-4.73,25.63,25.63,0,0,1,9.62-1.65,23.85,23.85,0,0,1,7.64,1.09,16.16,16.16,0,0,1,5.35,2.92,12.21,12.21,0,0,1,3.11,3.81,8.85,8.85,0,0,1,1,3.89,4.56,4.56,0,0,1-1.23,3.12,3.91,3.91,0,0,1-3.06,1.39,3.48,3.48,0,0,1-2.53-.83,11.18,11.18,0,0,1-1.88-2.73,12.46,12.46,0,0,0-3.15-4.24q-1.83-1.51-5.88-1.52a10.19,10.19,0,0,0-6.07,1.65,4.81,4.81,0,0,0-2.31,4,4,4,0,0,0,.79,2.48,6.49,6.49,0,0,0,2.16,1.8,13.65,13.65,0,0,0,2.78,1.18c.93.29,2.48.7,4.64,1.24a73.37,73.37,0,0,1,7.35,2.1,22.26,22.26,0,0,1,5.59,2.78,11.39,11.39,0,0,1,3.6,4.14A13.26,13.26,0,0,1,817.7,500.38Z" transform="translate(-46.5 -56.99)"/><path class="a7843716-dba6-44f8-9810-11942118cf87" d="M859.56,504.54a7.62,7.62,0,0,1-1,3.56,12.22,12.22,0,0,1-3,3.62,15.83,15.83,0,0,1-5.15,2.76,21.81,21.81,0,0,1-7,1q-8.28,0-12.92-4.83t-4.65-12.94a21.25,21.25,0,0,1,2.13-9.71,15.16,15.16,0,0,1,6.15-6.53,20.85,20.85,0,0,1,16-1.29,16.69,16.69,0,0,1,4.91,2.62,12.45,12.45,0,0,1,3.07,3.42,6.69,6.69,0,0,1,1.06,3.38,3.57,3.57,0,0,1-1.19,2.72,4.1,4.1,0,0,1-2.89,1.11,2.92,2.92,0,0,1-1.85-.57,9.36,9.36,0,0,1-1.66-1.85,13.62,13.62,0,0,0-3.41-3.73,8.38,8.38,0,0,0-10.91,1.85q-2.43,3.09-2.43,8.45a16.1,16.1,0,0,0,.63,4.63,10.32,10.32,0,0,0,1.8,3.6,7.67,7.67,0,0,0,2.84,2.26,8.71,8.71,0,0,0,3.67.77,8.23,8.23,0,0,0,4.59-1.25,10.74,10.74,0,0,0,3.39-3.79,8.6,8.6,0,0,1,1.77-2.36,3.37,3.37,0,0,1,2.32-.85,3.44,3.44,0,0,1,2.71,1.25A4,4,0,0,1,859.56,504.54Z" transform="translate(-46.5 -56.99)"/><path class="a7843716-dba6-44f8-9810-11942118cf87" d="M874.07,475.12a4.74,4.74,0,0,1-3.19-1.14,4.44,4.44,0,0,1,0-6.36,4.53,4.53,0,0,1,3.15-1.23,4.7,4.7,0,0,1,3.08,1.11,4,4,0,0,1,1.34,3.24,4.07,4.07,0,0,1-1.31,3.22A4.5,4.5,0,0,1,874.07,475.12Zm4.42,9.23v25.81a5.73,5.73,0,0,1-1.28,4.06,4.2,4.2,0,0,1-3.23,1.37,4,4,0,0,1-3.19-1.4,5.94,5.94,0,0,1-1.23-4V484.61a5.74,5.74,0,0,1,1.23-4,4.12,4.12,0,0,1,3.19-1.34,4.28,4.28,0,0,1,3.23,1.34A5.17,5.17,0,0,1,878.49,484.35Z" transform="translate(-46.5 -56.99)"/><path class="a7843716-dba6-44f8-9810-11942118cf87" d="M914.85,499.63H897.39a11.86,11.86,0,0,0,1.22,5.36,8.42,8.42,0,0,0,3.18,3.5,8.29,8.29,0,0,0,4.36,1.18,10.73,10.73,0,0,0,2.93-.37,9.73,9.73,0,0,0,2.57-1.18,20.42,20.42,0,0,0,2.29-1.72c.7-.61,1.6-1.44,2.71-2.49a3,3,0,0,1,2-.58,3.24,3.24,0,0,1,2.22.75,2.68,2.68,0,0,1,.85,2.13,5.76,5.76,0,0,1-1,2.83,11.2,11.2,0,0,1-2.86,3.1,16.19,16.19,0,0,1-4.81,2.47,20.54,20.54,0,0,1-6.65,1q-8.61,0-13.39-4.9t-4.77-13.32a22.07,22.07,0,0,1,1.18-7.34,16.14,16.14,0,0,1,3.43-5.81,15,15,0,0,1,5.56-3.71,20,20,0,0,1,7.33-1.3,17.4,17.4,0,0,1,9,2.21,14.5,14.5,0,0,1,5.61,5.71,15.07,15.07,0,0,1,1.87,7.13c0,2.25-.65,3.71-1.93,4.37A12,12,0,0,1,914.85,499.63Zm-17.46-5.07h16.19q-.33-4.59-2.47-6.85a7.38,7.38,0,0,0-5.64-2.28,7.12,7.12,0,0,0-5.48,2.31A11.43,11.43,0,0,0,897.39,494.56Z" transform="translate(-46.5 -56.99)"/><path class="a7843716-dba6-44f8-9810-11942118cf87" d="M940.07,484.22v1.08a15.57,15.57,0,0,1,5.15-4.56,13.73,13.73,0,0,1,6.43-1.46,12.77,12.77,0,0,1,6.31,1.54,9.7,9.7,0,0,1,4.15,4.35,10.47,10.47,0,0,1,1.15,3.53,37.49,37.49,0,0,1,.26,4.84v16.62a5.92,5.92,0,0,1-1.23,4.06,4,4,0,0,1-3.19,1.37,4.11,4.11,0,0,1-3.23-1.4,5.89,5.89,0,0,1-1.25-4V495.28a15,15,0,0,0-1.22-6.76q-1.23-2.34-4.9-2.34a7.25,7.25,0,0,0-4.35,1.43,8.16,8.16,0,0,0-2.87,3.91,27.68,27.68,0,0,0-.66,7.45v11.19a5.83,5.83,0,0,1-1.26,4.08,4.24,4.24,0,0,1-3.25,1.35,4.08,4.08,0,0,1-3.18-1.4,5.89,5.89,0,0,1-1.24-4V484.35a5.63,5.63,0,0,1,1.11-3.81,3.85,3.85,0,0,1,3-1.26,4.13,4.13,0,0,1,2.13.56,4,4,0,0,1,1.52,1.66A5.94,5.94,0,0,1,940.07,484.22Z" transform="translate(-46.5 -56.99)"/><path class="a7843716-dba6-44f8-9810-11942118cf87" d="M1006.66,504.54a7.62,7.62,0,0,1-1,3.56,12.22,12.22,0,0,1-3,3.62,15.83,15.83,0,0,1-5.15,2.76,21.85,21.85,0,0,1-7,1q-8.28,0-12.93-4.83t-4.64-12.94a21.38,21.38,0,0,1,2.12-9.71,15.28,15.28,0,0,1,6.15-6.53,20.87,20.87,0,0,1,16-1.29,16.63,16.63,0,0,1,4.9,2.62,12.5,12.5,0,0,1,3.08,3.42,6.69,6.69,0,0,1,1.06,3.38,3.61,3.61,0,0,1-1.19,2.72,4.11,4.11,0,0,1-2.9,1.11,2.94,2.94,0,0,1-1.85-.57,9.06,9.06,0,0,1-1.65-1.85,13.48,13.48,0,0,0-3.42-3.73,8.38,8.38,0,0,0-10.91,1.85q-2.41,3.09-2.42,8.45a16.46,16.46,0,0,0,.62,4.63,10.67,10.67,0,0,0,1.8,3.6,7.78,7.78,0,0,0,2.85,2.26,8.66,8.66,0,0,0,3.66.77,8.26,8.26,0,0,0,4.6-1.25,10.72,10.72,0,0,0,3.38-3.79,9,9,0,0,1,1.77-2.36,3.39,3.39,0,0,1,2.32-.85,3.46,3.46,0,0,1,2.72,1.25A4,4,0,0,1,1006.66,504.54Z" transform="translate(-46.5 -56.99)"/><path class="a7843716-dba6-44f8-9810-11942118cf87" d="M1041.58,499.63h-17.46a11.86,11.86,0,0,0,1.22,5.36,8.42,8.42,0,0,0,3.18,3.5,8.29,8.29,0,0,0,4.36,1.18,10.73,10.73,0,0,0,2.93-.37,9.73,9.73,0,0,0,2.57-1.18,20.42,20.42,0,0,0,2.29-1.72c.7-.61,1.6-1.44,2.71-2.49a3,3,0,0,1,2-.58,3.24,3.24,0,0,1,2.22.75,2.68,2.68,0,0,1,.85,2.13,5.76,5.76,0,0,1-1,2.83,11.2,11.2,0,0,1-2.86,3.1,16.19,16.19,0,0,1-4.81,2.47,20.54,20.54,0,0,1-6.65,1q-8.61,0-13.39-4.9T1015,497.37a22.07,22.07,0,0,1,1.18-7.34,16.14,16.14,0,0,1,3.43-5.81,15,15,0,0,1,5.56-3.71,20,20,0,0,1,7.33-1.3,17.4,17.4,0,0,1,9,2.21,14.5,14.5,0,0,1,5.61,5.71,15,15,0,0,1,1.87,7.13c0,2.25-.65,3.71-1.93,4.37A12,12,0,0,1,1041.58,499.63Zm-17.46-5.07h16.19q-.33-4.59-2.47-6.85a7.38,7.38,0,0,0-5.64-2.28,7.12,7.12,0,0,0-5.48,2.31A11.43,11.43,0,0,0,1024.12,494.56Z" transform="translate(-46.5 -56.99)"/><path class="a7843716-dba6-44f8-9810-11942118cf87" d="M1087.44,503.91a10.38,10.38,0,0,1-7.12,10.33,23.89,23.89,0,0,1-8.55,1.35,20.91,20.91,0,0,1-8.25-1.47,12,12,0,0,1-5.07-3.68,7.41,7.41,0,0,1-1.63-4.43,3.47,3.47,0,0,1,1-2.52,3.6,3.6,0,0,1,2.65-1.05,3.08,3.08,0,0,1,2.16.69,7.39,7.39,0,0,1,1.44,1.93,8.59,8.59,0,0,0,8.51,4.74,7.52,7.52,0,0,0,4.4-1.19,3.38,3.38,0,0,0,1.72-2.73,3.73,3.73,0,0,0-1.79-3.44,22.2,22.2,0,0,0-5.87-2.06,48.54,48.54,0,0,1-7.51-2.4,12.45,12.45,0,0,1-4.63-3.32,7.66,7.66,0,0,1-1.73-5.07,9,9,0,0,1,1.6-5.08,11.05,11.05,0,0,1,4.73-3.81,18.09,18.09,0,0,1,7.54-1.42,24.74,24.74,0,0,1,6.23.72,15.52,15.52,0,0,1,4.62,1.93,9.55,9.55,0,0,1,2.81,2.68,5.26,5.26,0,0,1,1,2.88,3.3,3.3,0,0,1-1,2.52,4,4,0,0,1-2.92,1,3.59,3.59,0,0,1-2.34-.78,15.38,15.38,0,0,1-2.21-2.36,8.05,8.05,0,0,0-2.39-2.09,7.46,7.46,0,0,0-3.73-.79,7.36,7.36,0,0,0-4,1,3,3,0,0,0-1.61,2.57,2.8,2.8,0,0,0,1.18,2.31,9.92,9.92,0,0,0,3.18,1.49c1.32.39,3.16.87,5.49,1.44a29.07,29.07,0,0,1,6.79,2.42,11.16,11.16,0,0,1,4,3.32A7.31,7.31,0,0,1,1087.44,503.91Z" transform="translate(-46.5 -56.99)"/><ellipse class="af46507b-ffcf-40f0-903e-bdc94261acd1" cx="56" cy="487.76" rx="51.5" ry="19.69"/><ellipse class="e8b04feb-2cc7-4a5d-b781-c3517448f96f" cx="102.5" cy="544.75" rx="19.67" ry="51.56" transform="translate(-304.77 66.93) rotate(-29.95)"/><ellipse class="e8b04feb-2cc7-4a5d-b781-c3517448f96f" cx="102.5" cy="544.75" rx="51.56" ry="19.67" transform="translate(-467.18 304.61) rotate(-60.05)"/><ellipse class="a7843716-dba6-44f8-9810-11942118cf87" cx="56" cy="487.76" rx="9.6" ry="9.61"/><path class="abcceb28-fa2b-4b12-a066-983d6e66ebd2" d="M204.76,545.83c-4.91,0-9.68-.12-14.31-.33a1,1,0,0,1,.1-2c46.54,2.12,109.76-5,146.68-51.11A119.32,119.32,0,0,0,344.66,482c19.14-29.41,28.5-88.78,27.84-176.45,0-.28-.16-27.94,4-74.1a229.7,229.7,0,0,1,4.06-25.49,167.31,167.31,0,0,1,6.26-21.11c8.94-25.23,26.85-46.56,32-51.06C463,95.21,525.27,97.48,535.69,99.52a1,1,0,1,1-.38,2c-10.27-2-71.57-4.24-115.15,33.77-5.07,4.42-22.65,25.37-31.45,50.23a165,165,0,0,0-6.19,20.85,224.76,224.76,0,0,0-4,25.26c-4.16,46-4,73.63-4,73.9.67,88.08-8.81,147.81-28.16,177.56a121.37,121.37,0,0,1-7.55,10.59C305,535.78,249.76,545.83,204.76,545.83Z" transform="translate(-46.5 -56.99)"/><path class="abcceb28-fa2b-4b12-a066-983d6e66ebd2" d="M535.5,100.5c-10.88-2.13-72.26-4.15-116,34-5.87,5.12-23.18,26.47-31.73,50.64a163.19,163.19,0,0,0-6.23,21,229.76,229.76,0,0,0-4,25.38c-4.21,46.64-4,74-4,74,1,129.46-20.57,165.59-28,177A121.88,121.88,0,0,1,338,493c-40.15,50.11-109.87,53.19-147.51,51.48" transform="translate(-46.5 -56.99)"/><path class="a7843716-dba6-44f8-9810-11942118cf87" d="M568.3,433.47H505.52q-13.59,0-19.41-6.09T480.3,408V253.54q0-13.59,5.95-19.55t19.27-6h66.57a155.83,155.83,0,0,1,25.5,1.82,54.62,54.62,0,0,1,19.34,7,51,51,0,0,1,12.89,11,48.52,48.52,0,0,1,8.55,14.72,49.28,49.28,0,0,1,2.94,17q0,30.84-30.83,45.13Q651,337.62,651,374.9a56.34,56.34,0,0,1-8.83,31,52.93,52.93,0,0,1-23.82,20.39,84.75,84.75,0,0,1-21.58,5.53A219,219,0,0,1,568.3,433.47ZM521.92,259.28V312.4H560q15.56,0,24-2.95a22.91,22.91,0,0,0,13-11.21,25.29,25.29,0,0,0,3.5-13.17q0-15.56-11.07-20.67t-33.77-5.12Zm43.3,83h-43.3v60h44.7q42.18,0,42.18-30.41,0-15.56-10.93-22.56T565.22,342.24Z" transform="translate(-46.5 -56.99)"/><path class="a7843716-dba6-44f8-9810-11942118cf87" d="M846.27,371.81a60.4,60.4,0,0,1-9.6,33.5q-9.6,14.85-28.1,23.26T764.71,437q-30.42,0-50.17-11.49a66.8,66.8,0,0,1-22.77-22.08Q683,389.61,683,376.58a18.19,18.19,0,0,1,18.64-18.36,15.84,15.84,0,0,1,11.14,4.2q4.55,4.21,7.78,12.48A83.26,83.26,0,0,0,729,391.29a34.28,34.28,0,0,0,12.83,10.86q8.26,4.28,21.72,4.28,18.49,0,30.06-8.62t11.56-21.51q0-10.23-6.24-16.61A40.24,40.24,0,0,0,782.86,350q-9.89-3.36-26.42-7.15-22.14-5.18-37.07-12.12a59.84,59.84,0,0,1-23.68-18.92q-8.76-12-8.76-29.77a51.1,51.1,0,0,1,9.25-30.13q9.26-13.17,26.77-20.25t41.2-7.08q18.92,0,32.72,4.69t22.91,12.48q9.11,7.77,13.31,16.32a37.58,37.58,0,0,1,4.21,16.68A19.68,19.68,0,0,1,832,288.08a16.76,16.76,0,0,1-13.1,6c-4.76,0-8.39-1.19-10.86-3.58s-5.16-6.28-8.06-11.7q-5.6-11.62-13.45-18.14t-25.23-6.52q-16.11,0-26,7.08t-9.88,17a17.26,17.26,0,0,0,3.36,10.65,28.45,28.45,0,0,0,9.25,7.71,62.31,62.31,0,0,0,11.91,5q6,1.83,19.9,5.33a312,312,0,0,1,31.46,9,95.74,95.74,0,0,1,24,11.91,49,49,0,0,1,15.41,17.73Q846.26,356.25,846.27,371.81Z" transform="translate(-46.5 -56.99)"/><path class="a7843716-dba6-44f8-9810-11942118cf87" d="M564.5,82.19l3.75.24c3.9-3.67,5.42-14.53,28.36-12.41-.83,46.52-25.3,51.43-23.77,61,.56,5.41,5.7,8.73,11.26,8.92,17.56-.5,16.77-20.24,22.24-70H629c-1.21,17.54-4.5,35.08-4.87,52.27.28,11.44,8.62,17.54,19.6,17.62,18.07.5,23.77-17.08,23.77-24.57h-3.89c-.37,6.18-3.94,10.62-11.54,10.89-20.71.23-9.31-30.37-9.17-56l24.6.12-.14-13.1C565.1,56.75,578.08,55.07,564.5,82.19Z" transform="translate(-46.5 -56.99)"/></svg>