<svg id="ea7082cf-02c2-436e-952c-c5abdf5a9aeb" data-name="Layer 1" xmlns="http://www.w3.org/2000/svg" viewBox="0 0 1920 1080"><defs><style>.bf414aac-3a1a-45ad-a45a-3c6e01ce4264{fill:#ff5fa7;}.abd6cf51-f94a-4dff-8a1e-ab77c709678a{fill:#74f5ff;}.f04fca0d-f4f9-4371-8d3a-3488d26ddf30{fill:#c9ff00;}.b5145d07-2df2-4d6d-b158-e512416cce1a{fill:#3f3d56;}.e3dd3545-f7d6-4e7d-a47d-782a90eefc3f{fill:#fff;}.beb9574f-837f-46a2-afc8-27aff93f6524{fill:#2f2e41;}.b27e8719-455b-431e-b5b4-d34857d29131{fill:#6c63ff;}.ad975342-6987-4e2b-b579-9946b589706f,.b25ddc99-1f0a-4278-9db9-8c2d9bf7310d,.b955d4fe-e169-4d1b-b057-d48ae56ed3ea,.fed29e50-4290-4a26-80f5-0079b1431bca{fill:none;}.ad975342-6987-4e2b-b579-9946b589706f,.b955d4fe-e169-4d1b-b057-d48ae56ed3ea,.ec0c29e1-46f1-46ba-8f9a-58c24c9ef868,.f0a8ddff-8f5d-4dde-a04f-a6aac51eca60,.fed29e50-4290-4a26-80f5-0079b1431bca{stroke:#000;}.ad975342-6987-4e2b-b579-9946b589706f,.b25ddc99-1f0a-4278-9db9-8c2d9bf7310d,.b955d4fe-e169-4d1b-b057-d48ae56ed3ea,.ec0c29e1-46f1-46ba-8f9a-58c24c9ef868,.f0a8ddff-8f5d-4dde-a04f-a6aac51eca60,.fed29e50-4290-4a26-80f5-0079b1431bca{stroke-miterlimit:10;}.ad975342-6987-4e2b-b579-9946b589706f{stroke-width:13px;}.b955d4fe-e169-4d1b-b057-d48ae56ed3ea{stroke-width:2.11px;}.aa1da790-25ad-4349-a933-854be1d57741{fill:#f0f0f0;}.f4793e6c-2142-4340-90e5-35d9a8a7987b{fill:#ccc;}.b281a138-0781-4ddc-b19b-3b93a8c325f4{fill:#e6e6e6;}.f80add06-ec36-4935-8b7f-323bddbb7498{fill:#f2f2f2;}.f0a8ddff-8f5d-4dde-a04f-a6aac51eca60{stroke-width:0.44px;}.ec0c29e1-46f1-46ba-8f9a-58c24c9ef868,.fed29e50-4290-4a26-80f5-0079b1431bca{stroke-width:0.47px;}.e9dac3eb-3a60-407a-b441-e8f44b8f32d0{fill:#ffb6b6;}.ef8c7696-1a66-4a6c-b7c5-949eee1b1ed7{fill:#6ca7ff;}.a3231044-521f-4e85-aab0-27ba9edb06fc{fill:#feb8b8;}.a746a5cc-7f84-4a66-b967-4edb378b52ff{opacity:0.2;isolation:isolate;}.b25ddc99-1f0a-4278-9db9-8c2d9bf7310d{stroke:#4f80ff;stroke-width:3px;}</style></defs><circle class="bf414aac-3a1a-45ad-a45a-3c6e01ce4264" cx="1773.5" cy="826.5" r="438.5"/><circle class="abd6cf51-f94a-4dff-8a1e-ab77c709678a" cx="1367" cy="137" r="632"/><circle class="f04fca0d-f4f9-4371-8d3a-3488d26ddf30" cx="-925.5" cy="827.5" r="1245.5"/><g id="aba45797-c32b-4871-8161-4abece65003e" data-name="Laptop"><path class="b5145d07-2df2-4d6d-b158-e512416cce1a" d="M1684.19,696.89l-513.41-1,59.5-111.44.29-.53V338.27c0-12.54,9.12-22.7,20.39-22.7h350.2c11.27,0,20.4,10.16,20.4,22.7h0V585.56Z"/><path class="e3dd3545-f7d6-4e7d-a47d-782a90eefc3f" d="M1250.5,331.42c-3.67,0-6.64,3.31-6.65,7.39V562.74c0,4.09,3,7.39,6.65,7.4h354c3.66,0,6.63-3.31,6.64-7.4V338.81c0-4.08-3-7.39-6.64-7.39Z"/><path class="beb9574f-837f-46a2-afc8-27aff93f6524" d="M1668.06,713.79H1186.91c-8.91,0-16.13-8-16.13-17.95h0q261.62-33.84,513.41,0h0c0,9.91-7.22,17.95-16.13,17.95Z"/><path class="beb9574f-837f-46a2-afc8-27aff93f6524" d="M1252,599.71a2.89,2.89,0,0,0-2.59,1.85l-18.33,44.36a3.33,3.33,0,0,0,1.39,4.21,2.64,2.64,0,0,0,1.19.29h385.57a3,3,0,0,0,2.85-3.17,3.45,3.45,0,0,0-.3-1.42l-19.93-44.36a2.83,2.83,0,0,0-2.55-1.76Z"/><ellipse class="e3dd3545-f7d6-4e7d-a47d-782a90eefc3f" cx="1426.06" cy="322.96" rx="4.27" ry="4.75"/><path class="beb9574f-837f-46a2-afc8-27aff93f6524" d="M1388.16,658.87a2.93,2.93,0,0,0-2.75,2.34l-4.59,19a3.23,3.23,0,0,0,2,3.89,2.71,2.71,0,0,0,.74.11H1471a3,3,0,0,0,2.85-3.17,3.7,3.7,0,0,0-.16-1l-5.91-19a2.89,2.89,0,0,0-2.69-2.13Z"/><polygon class="beb9574f-837f-46a2-afc8-27aff93f6524" points="1621.56 580.17 1621.56 584.4 1230.28 584.4 1230.58 583.87 1230.58 580.17 1621.56 580.17"/></g><g id="a62e7f45-3b1d-47ab-ad97-1f8706f4112b" data-name="Play"><ellipse class="b27e8719-455b-431e-b5b4-d34857d29131" cx="1334.95" cy="470.29" rx="64.29" ry="62.67"/><path class="e3dd3545-f7d6-4e7d-a47d-782a90eefc3f" d="M1321.73,446.35a4.84,4.84,0,0,0-2.47.68A4.55,4.55,0,0,0,1317,451v38.65a4.55,4.55,0,0,0,2.26,3.93,4.8,4.8,0,0,0,4.63.17l38.69-19.32a4.56,4.56,0,0,0,0-8.21l-38.69-19.32a4.89,4.89,0,0,0-2.16-.51Z"/></g><g id="a365cbd2-5a4d-4b66-b86c-520c3e19b5f9" data-name="Content"><line class="ad975342-6987-4e2b-b579-9946b589706f" x1="1282" y1="364" x2="1441" y2="364"/><line class="b955d4fe-e169-4d1b-b057-d48ae56ed3ea" x1="1427" y1="430.25" x2="1564" y2="430.25"/><line class="b955d4fe-e169-4d1b-b057-d48ae56ed3ea" x1="1427" y1="450.31" x2="1564" y2="450.31"/><line class="b955d4fe-e169-4d1b-b057-d48ae56ed3ea" x1="1427" y1="469.89" x2="1564" y2="469.89"/><line class="b955d4fe-e169-4d1b-b057-d48ae56ed3ea" x1="1427" y1="489" x2="1564" y2="489"/><line class="b955d4fe-e169-4d1b-b057-d48ae56ed3ea" x1="1427" y1="506.89" x2="1546.34" y2="506.83"/><line class="b955d4fe-e169-4d1b-b057-d48ae56ed3ea" x1="1427" y1="526.95" x2="1515.21" y2="527"/></g><g id="aabac259-a946-4c7e-a92e-0938136bae0c" data-name="Book"><path class="aa1da790-25ad-4349-a933-854be1d57741" d="M1565.69,517.42l0,0a.88.88,0,0,0,0,.15Z"/><path class="e3dd3545-f7d6-4e7d-a47d-782a90eefc3f" d="M1572.4,509.4c-.38.45-.78.89-1.18,1.33l-1.16,1.28a24,24,0,0,0-2.69,3.46,11.76,11.76,0,0,0-1,2l-.62-.12,0,.06s0,0,0-.07c1.13-3.1,3.73-5.51,6-8.1l.23-.25Z"/><path class="e3dd3545-f7d6-4e7d-a47d-782a90eefc3f" d="M1569,492.28a14.94,14.94,0,0,0,7-8.93c.1-.36.73-.22.64.14a15.53,15.53,0,0,1-7.27,9.28C1569,493,1568.63,492.48,1569,492.28Z"/><path class="e3dd3545-f7d6-4e7d-a47d-782a90eefc3f" d="M1570.4,460.85a5.61,5.61,0,0,0,4.7-.47c.35-.21.68.29.33.5a6.26,6.26,0,0,1-5.2.52.29.29,0,0,1-.23-.35A.33.33,0,0,1,1570.4,460.85Z"/><path class="f4793e6c-2142-4340-90e5-35d9a8a7987b" d="M1734.59,396.13,1715.72,308c-.66-3-3.61-5.19-7.11-5.29h-.45l-12.85.41-1.39,0-6.41.2-1.38,0-4.13.13-83.19,2.61h-.38l-18.64-.34-6.9-.12h-.22l-5.09-.1-44.37-.8-11.76-.22-5.8-.1-1.39,0-6.62-.12-1.39,0-6.76-.13-1.39,0-7.43-.14-1.17,0-6.63-.12-1,0h-.15c-3.63,0-6.73,2.31-7.33,5.44l-17.06,91.48c-.66,3.53,2.08,6.86,6.13,7.44a9.42,9.42,0,0,0,1.2.08h98a7.51,7.51,0,0,1,4,1.16l1.85,1.2a8.23,8.23,0,0,0,4.42,1.27h57.75a8,8,0,0,0,5.25-1.9,7.13,7.13,0,0,1,4.4-1.71l97.41-4.48c4.09-.19,7.24-3.24,7-6.81a6,6,0,0,0-.11-.85Z"/><path class="b281a138-0781-4ddc-b19b-3b93a8c325f4" d="M1719.15,393.73l-10.52-90.93a.5.5,0,0,0,0-.12,5.58,5.58,0,0,0-2.29-3.73l-22.63-16.44a6.49,6.49,0,0,0-3.48-1.22c-10.35-.58-63-2.73-82.39,12a5.9,5.9,0,0,1-4.35,1.08,5.53,5.53,0,0,1-3.77-2.2,21,21,0,0,0-6.35-5.66,34.44,34.44,0,0,0-3.56-1.88c-1.09-.5-2.27-1-3.56-1.46-1.11-.4-2.29-.79-3.56-1.16-6.57-1.91-15.36-3.35-27.1-3.83-4.88-.2-10.17-.22-15.74-.08-5.09.13-10.49.4-16.06.8h-.08L1476,299a5.69,5.69,0,0,0-3,4.25l-.08.6-12,93.32a5.34,5.34,0,0,0,1.55,4.44,6.51,6.51,0,0,0,4.67,1.9H1560a6,6,0,0,1,3.39,1.06l4.06,2.83a6.73,6.73,0,0,0,3.72,1.18l40.83.58h.09a6.72,6.72,0,0,0,3-.67l7.87-3.82a6.21,6.21,0,0,1,2.34-.59l88-4.05a6.43,6.43,0,0,0,4.44-2A5.29,5.29,0,0,0,1719.15,393.73Z"/><path class="e3dd3545-f7d6-4e7d-a47d-782a90eefc3f" d="M1688.43,377.33l-1.23-14.15-5.2-59.67-.77-8.83c-.41-4.81-4.93-8.56-10.44-8.67-19-.43-53.53.33-70.45,10.22a10.38,10.38,0,0,1-12.27-1.32,27.13,27.13,0,0,0-8.28-5.4,51.3,51.3,0,0,0-7.12-2.5q-10.74-3-27.12-3.64l-25.9-.13h0c-3.72,0-6.81,2.53-7,5.77l-1.12,15.52-4.92,68.05c-.37,5.17,4.12,9.63,10,9.95l.53,0c43.47.56,62.47,8.57,70.75,15.19a12,12,0,0,0,13.15.93c15-8.6,40-11,59.91-11.36,6.1-.11,11.71,0,16.41.11,5.93.19,10.91-3.86,11.12-9a7.5,7.5,0,0,0,0-1.06Z"/><path class="e3dd3545-f7d6-4e7d-a47d-782a90eefc3f" d="M1472.6,397.07h0a.65.65,0,0,1-.65-.64h0l7.49-92.19a.65.65,0,0,1,.72-.56h0a.64.64,0,0,1,.65.65h0l-7.48,92.18A.66.66,0,0,1,1472.6,397.07Z"/><path class="e3dd3545-f7d6-4e7d-a47d-782a90eefc3f" d="M1481.6,393.45h0a.63.63,0,0,1-.64-.64h0l7.48-92.19a.66.66,0,0,1,.72-.56h0a.65.65,0,0,1,.64.65h0l-7.48,92.18A.67.67,0,0,1,1481.6,393.45Z"/><path class="e3dd3545-f7d6-4e7d-a47d-782a90eefc3f" d="M1489.91,391.63h-.05a.63.63,0,0,1-.64-.64h0l7.48-92.19a.65.65,0,0,1,.72-.56h0a.65.65,0,0,1,.64.65h0l-7.48,92.18A.66.66,0,0,1,1489.91,391.63Z"/><path class="e3dd3545-f7d6-4e7d-a47d-782a90eefc3f" d="M1498.22,388h0a.64.64,0,0,1-.64-.65h0l7.48-92.18a.66.66,0,0,1,.72-.57h0a.64.64,0,0,1,.64.64h0l-7.48,92.19A.67.67,0,0,1,1498.22,388Z"/><path class="e3dd3545-f7d6-4e7d-a47d-782a90eefc3f" d="M1710.8,397.68h0a.64.64,0,0,0,.64-.65h0L1704,304.85a.67.67,0,0,0-.72-.57h0a.63.63,0,0,0-.64.64h0l7.48,92.19A.66.66,0,0,0,1710.8,397.68Z"/><path class="e3dd3545-f7d6-4e7d-a47d-782a90eefc3f" d="M1701.8,392.24h0a.65.65,0,0,0,.64-.65h0L1695,299.41a.66.66,0,0,0-.73-.56h0a.63.63,0,0,0-.64.64h0l7.48,92.19A.66.66,0,0,0,1701.8,392.24Z"/><path class="e3dd3545-f7d6-4e7d-a47d-782a90eefc3f" d="M1693.49,386.19h0a.63.63,0,0,0,.64-.64h0l-7.48-92.19a.66.66,0,0,0-.72-.56h0a.64.64,0,0,0-.64.65h0l7.48,92.18A.65.65,0,0,0,1693.49,386.19Z"/><path class="b5145d07-2df2-4d6d-b158-e512416cce1a" d="M1523.55,304.06a74.87,74.87,0,0,1,47.81,2.93,65.12,65.12,0,0,1,11.88,6.39c1,.71,2.52-.57,1.47-1.29a75.22,75.22,0,0,0-47.77-12.22,74.24,74.24,0,0,0-13.94,2.44.92.92,0,1,0,.55,1.75Z"/><path class="b5145d07-2df2-4d6d-b158-e512416cce1a" d="M1670.88,305a3.53,3.53,0,0,1-1.46-.26,66.26,66.26,0,0,0-12.8-3.8,73.4,73.4,0,0,0-17.1-1.25,69.62,69.62,0,0,0-28.78,7.45,3.28,3.28,0,0,1-1.41.37h0a3,3,0,0,1-3-1.81,2.25,2.25,0,0,1,1.25-2.81,71.78,71.78,0,0,1,13.3-5.26,79.57,79.57,0,0,1,18.28-2.95,78.39,78.39,0,0,1,32.94,5.57,2.32,2.32,0,0,1,1.57,2.69A2.9,2.9,0,0,1,1670.88,305Z"/><path class="b5145d07-2df2-4d6d-b158-e512416cce1a" d="M1609.44,304.45c14.51-6.66,31.89-8.11,47.67-4.33a68.47,68.47,0,0,1,13,4.49c1.18.55,2.23-1,1-1.56a77,77,0,0,0-49.51-4.71,71.12,71.12,0,0,0-13.22,4.54C1607.21,303.42,1608.26,305,1609.44,304.45Z"/><path class="e3dd3545-f7d6-4e7d-a47d-782a90eefc3f" d="M1652.79,358.36l-.36,0q-.72-.51-1.47-1c-.63-.4-1.28-.77-2-1.12a36.56,36.56,0,0,0-4.6-2,51,51,0,0,0-7.77-2.14,85.8,85.8,0,0,0-9.18-1.25c-3.09-.28-6.19-.45-9.3-.62-.13,0-.14-.17,0-.17l1.17.07c3.14.17,6.28.36,9.39.67a80.66,80.66,0,0,1,9.18,1.39,49.37,49.37,0,0,1,7.52,2.25,38.08,38.08,0,0,1,4,1.88c.83.46,1.62.94,2.38,1.45C1652.16,357.91,1652.48,358.13,1652.79,358.36Z"/><path class="e3dd3545-f7d6-4e7d-a47d-782a90eefc3f" d="M1623.25,337.45a5.75,5.75,0,0,0-4.65.25c2.54.35,5.06.8,7.55,1.37C1625.12,338.61,1624.32,337.87,1623.25,337.45Z"/><path class="e3dd3545-f7d6-4e7d-a47d-782a90eefc3f" d="M1618.58,337.7l-.28.18.3-.18Z"/><path class="b5145d07-2df2-4d6d-b158-e512416cce1a" d="M1523.55,316.15a74.73,74.73,0,0,1,47.81,2.93,65.7,65.7,0,0,1,11.88,6.38c1,.72,2.52-.56,1.47-1.28A75.22,75.22,0,0,0,1536.94,312,74.24,74.24,0,0,0,1523,314.4a.92.92,0,1,0,.55,1.75Z"/><path class="b5145d07-2df2-4d6d-b158-e512416cce1a" d="M1523.55,328.24a74.8,74.8,0,0,1,47.81,2.92,65.12,65.12,0,0,1,11.88,6.39c1,.71,2.52-.56,1.47-1.28A75.22,75.22,0,0,0,1536.94,324a73.45,73.45,0,0,0-13.94,2.45.92.92,0,1,0,.55,1.75Z"/><path class="b5145d07-2df2-4d6d-b158-e512416cce1a" d="M1523.55,340.32a74.87,74.87,0,0,1,47.81,2.93,65.12,65.12,0,0,1,11.88,6.39c1,.71,2.52-.56,1.47-1.28a75.16,75.16,0,0,0-47.77-12.23,73.45,73.45,0,0,0-13.94,2.45.92.92,0,1,0,.55,1.74Z"/><path class="b5145d07-2df2-4d6d-b158-e512416cce1a" d="M1523.55,352.41a74.8,74.8,0,0,1,47.81,2.93,65.7,65.7,0,0,1,11.88,6.38c1,.72,2.52-.56,1.47-1.28a75.22,75.22,0,0,0-47.77-12.22,74.24,74.24,0,0,0-13.94,2.44.92.92,0,1,0,.55,1.75Z"/><path class="b5145d07-2df2-4d6d-b158-e512416cce1a" d="M1523.55,364.5a74.73,74.73,0,0,1,47.81,2.93,65.08,65.08,0,0,1,11.88,6.38c1,.71,2.52-.56,1.47-1.28a75.29,75.29,0,0,0-47.77-12.23,73.45,73.45,0,0,0-13.94,2.45.92.92,0,1,0,.55,1.75Z"/><path class="b27e8719-455b-431e-b5b4-d34857d29131" d="M1579.79,284.62v33.87c0,.58-1.15,1.06-2.71,1.19a7.81,7.81,0,0,1-.85,0,8.22,8.22,0,0,1-2.52-.36,3.25,3.25,0,0,1-.43-.18c-.39-.2-.61-.43-.61-.69V282c1.27.37,2.45.76,3.56,1.16C1577.52,283.63,1578.7,284.12,1579.79,284.62Z"/><rect class="b281a138-0781-4ddc-b19b-3b93a8c325f4" x="1593.69" y="296.23" width="1.02" height="109.58"/><path class="f80add06-ec36-4935-8b7f-323bddbb7498" d="M1685.47,384.54a11.62,11.62,0,0,1-8.14,2.88c-4.7-.15-10.31-.22-16.41-.11l0,0,26.4-29.87,1.14,19.91A8.75,8.75,0,0,1,1685.47,384.54Z"/></g><g id="f53d8c2e-56e3-4864-a74d-397b706f3572" data-name="Aparatus"><g id="a479964f-e6e8-4e26-b8a5-9ca3ca63ac91" data-name="Text tube"><path d="M1643,318.68l-2.93,5.73c-.4.79.14,1.74,1.21,2.12a2.48,2.48,0,0,0,2.26-.26,1,1,0,0,1,.88-.16l25.27,8.94c2.29.81,4.77,0,5.47-1.78.81-1.58-.27-3.48-2.4-4.24l-25.28-8.93a.73.73,0,0,1-.48-.64C1647,317.79,1643.82,317.08,1643,318.68Zm27.81,14.47c.35.12.15.54-.21.41L1654.83,328c-.36-.13-.15-.55.21-.41Zm-25.46-13.64c-.12.28-.6.92-.12,1.11l.37.13,8.51,3c.31.11.47.38.35.61l-1.5,2.95a.63.63,0,0,1-.77.22l-8.71-3.08c-.69-.24-.85.41-1,.79s-1.06.1-.84-.3l2.92-5.74C1644.71,318.81,1645.58,319.11,1645.36,319.51Z"/><path class="f0a8ddff-8f5d-4dde-a04f-a6aac51eca60" d="M1653.46,327.39l1.1-2.15v-.55h-10.11l8.25,2.92A.61.61,0,0,0,1653.46,327.39Z"/><path class="e3dd3545-f7d6-4e7d-a47d-782a90eefc3f" d="M1670.47,333.45l-.09,0-20.73-7.3a.17.17,0,0,1-.12-.25.25.25,0,0,1,.3-.11l20.73,7.3a.19.19,0,0,1,.12.26A.23.23,0,0,1,1670.47,333.45Z"/></g><g id="b6c66bca-c407-4bf1-832d-bd8bd8e6696b" data-name="Conical flask"><path class="fed29e50-4290-4a26-80f5-0079b1431bca" d="M1631.36,344.42c-2.62,4.4-6.29,11.07-6.13,13.66.25,4,4.44,3.83,4.44,3.83l9.76-.43h0l9.77-.42s4.18-.19,3.93-4.19c-.16-2.6-4.65-8.91-7.81-13.06l-14,.61Z"/><path class="ec0c29e1-46f1-46ba-8f9a-58c24c9ef868" d="M1642.27,339.92l-.58-9.35,1.39-.06-.08-1.34-1.4.06-4.18.18-4.19.19-1.39.06.08,1.33,1.39-.06.59,9.35s-8.92,13.79-8.67,17.8,4.44,3.83,4.44,3.83l9.76-.43,9.77-.42s4.18-.19,3.93-4.19-10.86-16.95-10.86-16.95m6.84,19.8-9.76.43-9.77.42a2.64,2.64,0,0,1-3-2.55c-.16-2.61,5.11-11.82,8.48-17l.23-.35,0-.42-.59-9.36,5.58-.24.59,9.35,0,.42.27.33c4,4.88,10.39,13.58,10.56,16.19a2.54,2.54,0,0,1-2.63,2.8"/><path class="fed29e50-4290-4a26-80f5-0079b1431bca" d="M1634.83,355a1.34,1.34,0,0,1-1.31,1.4,1.41,1.41,0,0,1-1.48-1.27,1.33,1.33,0,0,1,1.31-1.4,1.41,1.41,0,0,1,1.48,1.27"/><path class="fed29e50-4290-4a26-80f5-0079b1431bca" d="M1640.07,349.4a2.68,2.68,0,0,1-2.62,2.79,2.8,2.8,0,0,1-3-2.55,2.66,2.66,0,0,1,2.62-2.79,2.8,2.8,0,0,1,3,2.55"/><path class="fed29e50-4290-4a26-80f5-0079b1431bca" d="M1646,354.5a2.68,2.68,0,0,1-2.62,2.79,2.8,2.8,0,0,1-3-2.55A2.66,2.66,0,0,1,1643,352a2.8,2.8,0,0,1,3,2.55"/></g><g id="e6cad9a2-79b3-4c3d-b414-5942a2e17e4b" data-name="Dna"><path d="M1641.42,373.18a.53.53,0,0,1-.28-.84,5.84,5.84,0,0,0,.43-5.88,7.45,7.45,0,0,0-5.38-3.93.54.54,0,0,1-.4-.83,7.26,7.26,0,0,0,.35-6.27.57.57,0,0,0-.73-.33l-.4.14a.56.56,0,0,0-.37.69c.48,1.41,1.42,5.35-2.43,6.75s-6.57-2.05-7.35-3.28a.59.59,0,0,0-.72-.21l-.37.15a.54.54,0,0,0-.28.79,9.28,9.28,0,0,0,5.38,4.09.54.54,0,0,1,.3.88,5.52,5.52,0,0,0-.39,6,7.07,7.07,0,0,0,4.88,3.85.53.53,0,0,1,.36.8,7.44,7.44,0,0,0-.25,6.12.58.58,0,0,0,.74.32l.4-.13a.56.56,0,0,0,.37-.7c-.48-1.41-1.42-5.34,2.43-6.74s6.56,2,7.35,3.28a.58.58,0,0,0,.72.21l.36-.15a.54.54,0,0,0,.29-.79A9.46,9.46,0,0,0,1641.42,373.18Zm-11.15-2.6c-.65-1.37-1.68-4.72,2.69-6.31a5.63,5.63,0,0,1,7.13,2.73,4.38,4.38,0,0,1-2.71,6.25C1632.63,375,1630.62,371.33,1630.27,370.58Z"/><path d="M1635.06,372.76l3.41-1.24a.79.79,0,0,0,.23-.14l0,0a.56.56,0,0,0-.63-.89l-3.46,1.26a.55.55,0,0,0,.15,1.07h0A.53.53,0,0,0,1635.06,372.76Z"/><path d="M1638.75,368.07l-6.6,2.41a.55.55,0,0,0-.26.87h0a.61.61,0,0,0,.65.16l6.6-2.4a.57.57,0,0,0,.38-.6h0A.58.58,0,0,0,1638.75,368.07Z"/><path d="M1638,366.32l-6.75,2.46a.56.56,0,0,0-.36.68h0a.57.57,0,0,0,.76.35l6.75-2.46a.55.55,0,0,0,.27-.86h0A.6.6,0,0,0,1638,366.32Z"/><path d="M1635.9,364.92l-4.55,1.65a.64.64,0,0,0-.31.25l0,.07a.55.55,0,0,0,.72.73l4.59-1.67a.54.54,0,0,0,0-1.05h0A.67.67,0,0,0,1635.9,364.92Z"/><path d="M1630,362.1l3.41-1.24a.59.59,0,0,0,.23-.14l0,0a.55.55,0,0,0-.62-.88l-3.47,1.26a.55.55,0,0,0,.15,1.07h0A.51.51,0,0,0,1630,362.1Z"/><path d="M1634.49,357.86h0a.56.56,0,0,0-.77-.43l-6.61,2.4a.55.55,0,0,0-.26.87v0a.62.62,0,0,0,.65.15l6.6-2.4A.56.56,0,0,0,1634.49,357.86Z"/><path d="M1635.74,379.94h0a.57.57,0,0,0,.75.35l6.76-2.46a.54.54,0,0,0,.26-.86h0a.61.61,0,0,0-.66-.17l-6.75,2.46A.56.56,0,0,0,1635.74,379.94Z"/><path d="M1640.79,375.4l-4.55,1.65a.64.64,0,0,0-.31.25l0,.07a.55.55,0,0,0,.72.73l4.59-1.67a.55.55,0,0,0,0-1.05h0A.67.67,0,0,0,1640.79,375.4Z"/></g></g><g id="e748e28c-1d70-45cb-aaf1-7e9a68b8149e" data-name="Person"><path id="bb06bbb1-32b4-41e6-8e13-750db0b3375c" data-name="fa90ba82-4976-41ea-9b03-d8a96d925ef6-503" class="e9dac3eb-3a60-407a-b441-e8f44b8f32d0" d="M1627.57,361.79l1.23-6.45,22.57,3.32,32,2a5.3,5.3,0,0,1,6.79-.3,3.84,3.84,0,0,1,.34,5.93,5.32,5.32,0,0,1-6.79.3,4.18,4.18,0,0,1-1.16-1.4l-19.64,1.15Z"/><path id="b4ccc8dc-6a46-40d3-97e2-6f89ea6dda43" data-name="fb44d525-e05f-4433-9150-930b9a652ce4-504" class="b27e8719-455b-431e-b5b4-d34857d29131" d="M1610.7,357.33l1.6-5.76s8.65-1.39,15.49-.06l25.74,4.31-2.09,13.58Z"/><polygon class="e9dac3eb-3a60-407a-b441-e8f44b8f32d0" points="1619.75 488.93 1618.34 498.9 1617.27 506.48 1616.84 509.54 1610.72 509.54 1610.72 506.82 1610.71 497.83 1610.71 488.93 1619.75 488.93"/><polygon class="e9dac3eb-3a60-407a-b441-e8f44b8f32d0" points="1577.07 487.88 1575.34 492.56 1573.94 496.31 1573.7 496.95 1572.75 499.52 1570.74 504.94 1569.73 507.64 1564.17 506.7 1563.72 506.63 1564.08 505 1564.3 504 1566.74 492.99 1567.13 491.21 1567.2 490.93 1567.38 490.1 1568.2 486.39 1574.13 487.39 1574.82 487.5 1577.07 487.88"/><path class="beb9574f-837f-46a2-afc8-27aff93f6524" d="M1629,429.52c-3.5,16.79-4.38,24-4.38,24s2.63,2.67.88,4.2,0,4.58,0,4.58l-3.94,37-3.17-.45-7.63-1.07-2.75-.39,1.75-34.72s-1.75-3.06-.88-3.82-.87-5.34-.87-5.34l-2.19-36.25L1592.22,457s1.31,1.53,0,2.67-3.93,6.87-3.93,6.87l-8.06,24.62-.69,2.09-4.2-.68-4.58-.75-.84-.14-1.5-.25-1-.16-.33-.05-1.58-.26.48-1.85.25-1,6.82-26.44.15-.61.17-.64s-.87-1.91.44-3.06a2.75,2.75,0,0,0,.87-2.67l-.12-.13a1.45,1.45,0,0,1-.31-.62c-.12-.48,0-1.15.87-1.92a3.23,3.23,0,0,0,.62-.77c1.33-2.2,2-6.86,2-6.86s1.18-36.87,5.06-42.5a1.87,1.87,0,0,1,.63-.62c4.37-2.28,46.34,0,46.34,0s.06.27.15.77C1630.47,404.88,1631.91,415.28,1629,429.52Z"/><path id="ad07b844-507d-46fb-a3ac-180776073ff1" data-name="ed2da19a-1c50-4597-bafc-ed19ebf50383-505" class="e9dac3eb-3a60-407a-b441-e8f44b8f32d0" d="M1551,404.69l14.4-27.3,10.51-19.32,9.11,4.68-28.37,44.94c.7,2.24-.81,4.55-3.38,5.15a4.92,4.92,0,0,1-5.9-2.95c-.69-2.23.82-4.54,3.38-5.15l.25-.05Z"/><path id="be7f9c11-359c-435c-a977-6231e1d6c6ad" data-name="a46ff28a-e8a9-4d92-ab46-12a75733fdc3-506" class="b27e8719-455b-431e-b5b4-d34857d29131" d="M1592.49,349.8l-7-2.8s-1.24-.38-3.91,2.85-25.66,33.71-25.66,33.71l14.6,5.76Z"/><path class="beb9574f-837f-46a2-afc8-27aff93f6524" d="M1627.66,515.48l-9.1-5.48v-3.58l-1.29.06-6.55.35-1.73.09-1.19,12.46,0,.18h4.3l0-.18.73-3.36,1.86,3.36.1.18h11.4a2.85,2.85,0,0,0,1-.18,2.14,2.14,0,0,0,1.36-2.93,2.35,2.35,0,0,0-.91-1Z"/><path class="beb9574f-837f-46a2-afc8-27aff93f6524" d="M1579.14,515.81l-4-3.77-2.77-2.64L1572,509l-.07-.07-.22-.21.91-3.49-1.83-.26-6.44-.93L1564,504l-.69-.1-.16,0-2.19,6-2,5.46-.22.6,2.65.52,1.54.31.77-1.53.08-.16.5-1h0l.31-.6,1,3.83.17,0h0l.62.12,1.21.24,8.48,1.69.6.12a2.6,2.6,0,0,0,3.07-1.68A2.08,2.08,0,0,0,1579.14,515.81Z"/><path class="e9dac3eb-3a60-407a-b441-e8f44b8f32d0" d="M1618.37,332.19a14.2,14.2,0,0,1-9.61,6.22l-.68.1c-7.77,1.06-15.06-3.57-16.27-10.35s4.1-13.14,11.87-14.2,15,3.58,16.27,10.36A11.06,11.06,0,0,1,1618.37,332.19Z"/><path class="b27e8719-455b-431e-b5b4-d34857d29131" d="M1583,397.85a9.51,9.51,0,0,0,0-5.34c-.88-2.67.87-3.82.87-3.82l.44-41.21c1.85-1.61,6.8-1.64,9.56-1.51v-1.82a2.73,2.73,0,0,1,2.89-2.52h12.8a2.72,2.72,0,0,1,2.89,2.52v2.18l3.76.05c6.54.42,12.26,6.06,12.26,6.06l-5.69,19.08s1.75,15.64,3.94,17.55,1.31,3.06,1.31,3.06-1.31,4.19,1.31,5.72.88,4.2.88,4.2-47.22.76-48.53-.39S1583,397.85,1583,397.85Z"/><path class="beb9574f-837f-46a2-afc8-27aff93f6524" d="M1612.71,315.33c-4.66-2.8-8.76-3.22-12.13-2.43a4.24,4.24,0,0,0-1.77-1.37c-2.63-5.78-10.63-9.26-17.49-7.57s-11.68,8.38-10.38,14.54c.81,3.82,3.56,7.13,4.67,10.89,2.14,7.28-3.09,15.62-11.27,18,7.75,1.36,16.27-2.77,19.05-9.22,1.35-3.14,1.43-6.56,1.61-9.91a28.52,28.52,0,0,1,1-6.86,13.89,13.89,0,0,1,1.25-2.92,10.9,10.9,0,0,1,5.48-4.64,3.43,3.43,0,0,0,.64,3.43c-1.81,2-2.8,4.14-2.8,5.42-3.78,6,1.62,11.2,8.52,14.49a15.93,15.93,0,0,0,9,1.37l.29-1.07.39,1,1.3,3.24q2.26,1,4.48,2.09a68.84,68.84,0,0,1-1.33-6.85c-.43-3.06,1.08-7.61,2.17-10.39a14.47,14.47,0,0,0,1-5.3v-.08l1.06,3,3.87-1.44C1620.61,319.06,1621.33,315,1612.71,315.33Z"/></g><g id="f81fb953-f9a7-4b62-a7a1-167332aa0873" data-name="Chemical"><path class="ef8c7696-1a66-4a6c-b7c5-949eee1b1ed7" d="M1573.07,944.41c-4.72,3.4-7.09,5.23-7.33,5.66l-.36.63,2.64,11.46,2.63,11.45.57.31c.54.32,17.38,3.52,17.88,3.4.12,0,3.39-2.37,7.23-5.2,4.63-3.41,7.13-5.37,7.36-5.8l.34-.63-2.61-11.37L1598.8,943l-.58-.42c-.41-.28-3.34-.88-9.11-1.87-4.7-.78-8.64-1.41-8.79-1.37S1576.92,941.64,1573.07,944.41Zm15.29,0,7,1.2,2.24,9.58,2.28,9.61-5.84,4.28-5.86,4.29-7.09-1.28-7.12-1.28-2.14-9.63-2.16-9.61,5.65-4.11c3.11-2.26,5.76-4.13,5.86-4.18S1584.52,943.77,1588.36,944.42Z"/><path class="ef8c7696-1a66-4a6c-b7c5-949eee1b1ed7" d="M1535.64,977.14a5.84,5.84,0,0,0-1.93,7.78c2.57,4.62,9.66,3.39,10.7-1.85a6.32,6.32,0,0,0-.83-4.21A5.79,5.79,0,0,0,1535.64,977.14Zm4.07,3.17a1.57,1.57,0,0,1,.84,1.17,1.92,1.92,0,1,1-3.43-.48A1.82,1.82,0,0,1,1539.71,980.31Z"/><path class="ef8c7696-1a66-4a6c-b7c5-949eee1b1ed7" d="M1568.86,977.33c-.15.1-3.12,2.22-6.57,4.72l-6.29,4.52-4.15-1.7c-3.33-1.34-4.3-1.65-4.86-1.52a1.85,1.85,0,0,0-.69,3.22,42.88,42.88,0,0,0,4.34,1.95l3.88,1.58,2.56,10.68c2.49,10.33,2.59,10.68,3.08,11,.28.18,3.93.94,8.09,1.71l7.58,1.39,1,4.27c1,4,1.08,4.29,1.58,4.64a2.47,2.47,0,0,0,1.17.34,2.09,2.09,0,0,0,1.75-1.29c0-.2-.38-2.24-.9-4.5l-1-4.14.53-.39,5.92-4.41,5.42-4,3.81,1.58c3.27,1.38,4,1.58,4.64,1.42a1.79,1.79,0,0,0,.75-3.15,36,36,0,0,0-4.3-2l-3.78-1.55-2.41-10.49-2.41-10.49-.58-.42c-.42-.26-3.35-.85-8.84-1.78C1569.42,977.07,1569.3,977.05,1568.86,977.33Zm8.23,4.89c3.8.64,7.06,1.25,7.23,1.32s.79,2.26,2.42,9.39c1.17,5.06,2.06,9.34,2,9.49s-2.69,2.19-5.87,4.53l-5.8,4.27-7.11-1.29-7.12-1.3-2.14-9.61-2.17-9.61,5.76-4.15,5.81-4.19C1570.16,981.06,1573.29,981.59,1577.09,982.22Z"/><path class="ef8c7696-1a66-4a6c-b7c5-949eee1b1ed7" d="M1565.23,987.29a59.31,59.31,0,0,0-4.71,3.62,1.88,1.88,0,0,0,1.39,2.83c.77.09,1-.08,5.53-3.35a55.08,55.08,0,0,0,4.87-3.78,2.55,2.55,0,0,0,.12-1.1c0-.66-.17-.84-.84-1.26a1.89,1.89,0,0,0-1.37-.34A45.75,45.75,0,0,0,1565.23,987.29Z"/><path class="ef8c7696-1a66-4a6c-b7c5-949eee1b1ed7" d="M1579.9,987.45c-.35.59-.35.72.75,6.17a59.6,59.6,0,0,0,1.37,5.93,1.92,1.92,0,0,0,3.3.12l.41-.63-1.32-5.74c-.73-3.16-1.42-5.89-1.53-6.06a2.44,2.44,0,0,0-2.07-.51A1.81,1.81,0,0,0,1579.9,987.45Z"/><path class="ef8c7696-1a66-4a6c-b7c5-949eee1b1ed7" d="M1564,1003.64a2,2,0,0,0-.58,1.15,1.33,1.33,0,0,0,.41,1.47c.51.6.89.71,6.11,1.64a55.76,55.76,0,0,0,6.12.87,2.28,2.28,0,0,0,1.31-2.27c-.26-1.13-1-1.38-6.8-2.38a55.12,55.12,0,0,0-5.8-.86A2.6,2.6,0,0,0,1564,1003.64Z"/><path class="ef8c7696-1a66-4a6c-b7c5-949eee1b1ed7" d="M1573.21,1028.55a7.15,7.15,0,0,0-2.62,2.68,5.49,5.49,0,0,0-.33,3.91,5.47,5.47,0,0,0,6.81,4.2,5.48,5.48,0,0,0,4.31-6.83,5.11,5.11,0,0,0-2.32-3.51A6.16,6.16,0,0,0,1573.21,1028.55Zm3.63,3.56a1.82,1.82,0,0,1,.84,2.23,2.24,2.24,0,0,1-1.57,1.49,3,3,0,0,1-2.3-1.5A2,2,0,0,1,1576.84,1032.11Z"/><path class="ef8c7696-1a66-4a6c-b7c5-949eee1b1ed7" d="M1582.85,1026.56c-.81.58-.78,1.59.14,5.58,1,4.26,1.3,4.89,2.53,5,1.6.16,2.36-1,1.91-2.89l-.27-1.21,1.25-.29,1.25-.29.24,1c.32,1.37.94,2.09,1.89,2.18a1.78,1.78,0,0,0,2-1.14c.18-.46.07-1.25-.75-4.8l-1-4.27-.74-.46a1.7,1.7,0,0,0-2.47.46c-.41.53-.43.8-.24,2l.24,1.42-1.21.21-1.18.21-.41-1.29c-.34-1.11-.51-1.36-1.11-1.68A1.76,1.76,0,0,0,1582.85,1026.56Z"/></g><g id="b53b786b-c205-4809-a817-f897c5688dcb" data-name="Brain"><path class="ef8c7696-1a66-4a6c-b7c5-949eee1b1ed7" d="M1460.94,835.27a14.83,14.83,0,0,0-9.54,6.25,5.46,5.46,0,0,1-1.85,2,14.53,14.53,0,0,0-5.46,6.29,14.89,14.89,0,0,0-1.18,6l.1,1.2-1.52.86a20.29,20.29,0,0,0-9.15,10.46,22.41,22.41,0,0,0-1.26,6.49,3.29,3.29,0,0,1-.48,1.84,23.63,23.63,0,0,0-2.14,5.33,16,16,0,0,0-.46,5.07c0,3,.06,3.5.52,5.09a22.73,22.73,0,0,0,4.22,8.2l.9,1.09-.2,1a16.71,16.71,0,0,0,.44,6.36,15.65,15.65,0,0,0,6,7.73,2.5,2.5,0,0,1,1.42,1.73c1.9,5.6,7.84,9.68,15.39,10.54a23.47,23.47,0,0,0,7.62-.37,17.09,17.09,0,0,0,8.39-4.77,3.86,3.86,0,0,1,.7-.74,6.14,6.14,0,0,1,1,1c2.44,2.82,6.93,4.74,11.73,5,8.95.5,17.13-4,19.39-10.67a2.5,2.5,0,0,1,1.42-1.73,13.75,13.75,0,0,0,6.47-14.07l-.22-1,.92-1.12a21,21,0,0,0,2.26-23.54,5.8,5.8,0,0,1-.66-3,19.89,19.89,0,0,0-10.61-16.17l-1.26-.7.1-1.2a14.3,14.3,0,0,0-2.54-8.46,16.21,16.21,0,0,0-4.08-3.85,4.37,4.37,0,0,1-1.56-1.55,13.71,13.71,0,0,0-6.45-5.59c-5.18-2.32-11-1.66-14.61,1.68l-1.28,1.18-1.28-1.18A13.09,13.09,0,0,0,1460.94,835.27Zm6,5.13c1.9.87,3.06,2.47,3.64,5.05.44,1.94.44,70,0,71.75-1.2,4.63-5.72,7.26-12,7a19.72,19.72,0,0,1-3.72-.5c-4.54-1.2-8-4.15-8.75-7.48-.42-1.83.42-5,1.82-6.92a7.77,7.77,0,0,1,10.87-1.56,5.77,5.77,0,0,1,2.1,3.76c.26,1.56.46,1.95,1.26,2.34a2.13,2.13,0,0,0,2.62-.52c.49-.55.52-.66.42-2a9.57,9.57,0,0,0-3.26-6.38l-.86-.74,1.18-1.16c2.22-2.14,3.56-5.82,2.8-7.65a2.27,2.27,0,0,0-3.34-.61,3.1,3.1,0,0,0-.78,1.89,5.79,5.79,0,0,1-2.2,3.94c-1.3,1.09-2.22,1.38-5.3,1.66-5.47.48-9.19,3.32-10.91,8.3l-.54,1.56-.94-1a10.49,10.49,0,0,1-2.36-4.08,11.33,11.33,0,0,1,.1-4.79,3,3,0,0,0-.89-3.63,16.21,16.21,0,0,1-4.76-12.41,14.64,14.64,0,0,1,2-7.28c1.1-2,1.1-2.05,1.1-3.71a14.63,14.63,0,0,1,2.34-8.09,18.48,18.48,0,0,1,5.62-5.28l1.24-.66,1.46,1.31a12.81,12.81,0,0,0,5.49,3l1.24.31v1.22a10,10,0,0,0,.22,2c.56,2.27,2.54,4.8,3.74,4.8a2.26,2.26,0,0,0,2-.85c.58-.79.46-1.55-.46-2.8a5.47,5.47,0,0,1-.42-6.31,6.17,6.17,0,0,1,4-3c1.47-.42,2.15-1.07,2.15-2a2.28,2.28,0,0,0-1.39-1.84c-1.8-.68-6.44,1.64-8,4-.48.74-.54.77-1.3.66a9.57,9.57,0,0,1-4.37-2.15,5.45,5.45,0,0,1-1.66-3.8,9.67,9.67,0,0,1,5.33-9c1-.51,1.18-.7,2-2.13a9.3,9.3,0,0,1,4.32-4.08,8.53,8.53,0,0,1,4.34-.79A6.27,6.27,0,0,1,1466.91,840.4Zm18.31-.41a9.34,9.34,0,0,1,6.26,4.72c.78,1.44,1,1.62,2,2.14a9.57,9.57,0,0,1,5.32,9,5.42,5.42,0,0,1-1.64,3.76,9.63,9.63,0,0,1-4.37,2.16c-.76.11-.82.07-1.3-.66-1.56-2.4-6.2-4.72-8-4A2.3,2.3,0,0,0,1482,859c0,.91.7,1.62,1.86,1.94a7.31,7.31,0,0,1,3.88,2.36,5.52,5.52,0,0,1,0,6.89c-.86,1.15-1,1.66-.78,2.38a2.07,2.07,0,0,0,2.06,1.36c.7,0,.92-.11,1.66-.81a9.65,9.65,0,0,0,2.26-4,10,10,0,0,0,.22-2.05v-1.21l1.23-.32a12.77,12.77,0,0,0,5.5-3l1.46-1.31,1.24.66a18.42,18.42,0,0,1,5.61,5.27,14.66,14.66,0,0,1,2.34,8.1c0,1.66,0,1.69,1.1,3.7a14.94,14.94,0,0,1,2,7.14,16,16,0,0,1-4.56,12.29c-1.54,1.74-1.66,2.18-1.08,4a10.58,10.58,0,0,1,0,4.88,9.41,9.41,0,0,1-2.29,3.93l-.94,1-.44-1.37a11.84,11.84,0,0,0-3.42-5.34c-2.32-2.14-4.44-2.95-8.52-3.28-2.27-.19-3.39-.58-4.53-1.61a5.69,5.69,0,0,1-2-3.59c-.28-1.66-.58-2.16-1.52-2.51a2,2,0,0,0-2.8,1.68c-.26,2.08,1,5,2.94,6.93l1.18,1.16-.86.74a9.55,9.55,0,0,0-3.26,6.38c-.1,1.31-.08,1.42.42,2a2.43,2.43,0,0,0,2.28.72,2.3,2.3,0,0,0,1.52-2.08,5.44,5.44,0,0,1,1.9-3.95,6.19,6.19,0,0,1,2.32-1.44,8.66,8.66,0,0,1,7.39,1.2c2.2,1.55,3.88,6,3.22,8.61-.86,3.28-4.26,6.16-8.72,7.32a20.26,20.26,0,0,1-7.59.29c-4.28-.79-7.2-3.24-8.1-6.76-.44-1.74-.46-69.63,0-71.75.78-3.69,3.06-5.63,6.72-5.64A12.28,12.28,0,0,1,1485.22,840Z"/><path class="ef8c7696-1a66-4a6c-b7c5-949eee1b1ed7" d="M1441.81,878a1.82,1.82,0,0,0-.66,2.27c.34.77.78,1,2.48,1.34a6.41,6.41,0,0,1,4.68,3.27,4.13,4.13,0,0,1,.46,2.52,4.29,4.29,0,0,1-.68,3c-.82,1.48-.76,2.27.2,3a2.23,2.23,0,0,0,3.37-.74,8.58,8.58,0,0,0,1.48-5,15.17,15.17,0,0,0-.08-2.21c-.1-.54-.06-.57,1-.89a10,10,0,0,1,3-.35,9.31,9.31,0,0,1,3.66.56c1.44.46,1.86.53,2.42.38a1.84,1.84,0,0,0,1-3.08c-.55-.6-2.57-1.36-4.65-1.71a18.2,18.2,0,0,0-6.94.46l-1.6.46-1-.88a12.65,12.65,0,0,0-2-1.48C1445.85,877.66,1442.83,877.21,1441.81,878Z"/><path class="ef8c7696-1a66-4a6c-b7c5-949eee1b1ed7" d="M1500.41,874.43a1.79,1.79,0,0,0-.58.89A11,11,0,0,1,1498,882l-.8,1.14-.94-.44a10.92,10.92,0,0,0-4.85-1c-2.3,0-3.68.39-4.22,1.16a1.92,1.92,0,0,0,.32,2.51c.46.42.64.48,1.66.4,3.8-.24,5.13.08,6.73,1.66s1.8,2.29,1.76,4.69.12,2.71,1.24,3.15a1.75,1.75,0,0,0,1.42,0c1.16-.35,1.56-1.13,1.64-3.27a8.66,8.66,0,0,0-1.14-5.09l-.56-1,.8-1a15.42,15.42,0,0,0,2.46-4.66,17.49,17.49,0,0,0,.42-3.08l.12-2-.72-.66a1.83,1.83,0,0,0-1.54-.64A1.74,1.74,0,0,0,1500.41,874.43Z"/></g><path class="e3dd3545-f7d6-4e7d-a47d-782a90eefc3f" d="M1349.84,823c-1.38-2.55-3.37-4.07-5.51-4.07H1091c-2.14,0-4.13,1.53-5.52,4.08-3,3.7-4.94,9.55-5,16.16s2,12.47,5,16.16a9.19,9.19,0,0,0,2.27,2.82h-27.53c-6.82,0-12.35,9.08-12.36,20.25,0,6.08,1.65,11.52,4.25,15.23h-.28a10.76,10.76,0,0,0,3.25,5h-29.42c-2.14,0-4.14,1.54-5.52,4.09-3,3.7-4.95,9.55-4.95,16.16s1.95,12.48,5,16.17c1.38,2.55,3.37,4.07,5.51,4.07H1279c2.14,0,4.13-1.53,5.52-4.08,3-3.7,4.94-9.55,5-16.16s-2-12.47-5-16.16a9.19,9.19,0,0,0-2.27-2.82h27.53c6.82,0,12.35-9.08,12.36-20.25,0-6.08-1.65-11.52-4.25-15.23h.28a10.76,10.76,0,0,0-3.25-5h29.42c2.14,0,4.14-1.54,5.52-4.09,3-3.7,5-9.55,5-16.16S1352.85,826.64,1349.84,823Z"/><g id="f43c273d-d224-4b46-b000-6505fdf2f81a" data-name="Road"><path class="f4793e6c-2142-4340-90e5-35d9a8a7987b" d="M1223.91,824.76c-4.7,0-8.51,6.24-8.5,13.94s3.81,13.91,8.5,13.91H1350.4c-1.29,3.89-3.79,6.32-6.49,6.32H1092.48c-6.83,0-12.36-9.07-12.36-20.24s5.53-20.23,12.36-20.25h251.43c2.7,0,5.2,2.43,6.49,6.32Z"/><path class="f4793e6c-2142-4340-90e5-35d9a8a7987b" d="M1350.57,844.94H1230.31c-.39,0-.7.51-.69,1.14s.31,1.13.69,1.13h120.26c.38,0,.69-.51.69-1.14S1351,844.94,1350.57,844.94Z"/><path class="f4793e6c-2142-4340-90e5-35d9a8a7987b" d="M1350.57,837.55H1230.31c-.39,0-.7.51-.69,1.14s.31,1.13.69,1.13h120.26c.38,0,.69-.51.69-1.14S1351,837.55,1350.57,837.55Z"/><path class="f4793e6c-2142-4340-90e5-35d9a8a7987b" d="M1350.57,830.16H1230.31c-.39,0-.7.51-.69,1.14s.31,1.13.69,1.13h120.26c.38,0,.69-.51.69-1.14S1351,830.16,1350.57,830.16Z"/><path class="b27e8719-455b-431e-b5b4-d34857d29131" d="M1191.24,864c-4.7,0-8.51,6.25-8.51,13.94s3.81,13.91,8.51,13.92h126.49c-1.3,3.89-3.79,6.31-6.5,6.31H1059.81c-6.83,0-12.37-9.07-12.36-20.24s5.53-20.23,12.36-20.24h251.42c2.71,0,5.2,2.42,6.5,6.31Z"/><path class="f4793e6c-2142-4340-90e5-35d9a8a7987b" d="M1317.9,884.16H1197.64c-.39,0-.7.52-.7,1.14s.31,1.13.7,1.14H1317.9c.38,0,.69-.51.69-1.14s-.31-1.14-.69-1.14Z"/><path class="f4793e6c-2142-4340-90e5-35d9a8a7987b" d="M1317.9,876.77H1197.64c-.39,0-.7.51-.7,1.14s.31,1.13.7,1.14H1317.9c.38,0,.69-.51.69-1.14s-.31-1.14-.69-1.14Z"/><path class="f4793e6c-2142-4340-90e5-35d9a8a7987b" d="M1317.9,869.38H1197.64c-.39,0-.7.52-.7,1.14s.31,1.13.7,1.14H1317.9c.38,0,.69-.51.7-1.14s-.31-1.14-.7-1.14Z"/><path class="f4793e6c-2142-4340-90e5-35d9a8a7987b" d="M1158.57,904.51c-4.7,0-8.51,6.25-8.51,13.94s3.81,13.91,8.51,13.92h126.49c-1.3,3.89-3.79,6.31-6.5,6.32H1027.14c-6.83,0-12.37-9.08-12.37-20.25s5.54-20.22,12.37-20.24h251.42c2.71,0,5.2,2.42,6.5,6.31Z"/><path class="f4793e6c-2142-4340-90e5-35d9a8a7987b" d="M1285.23,924.7H1165c-.38,0-.69.5-.69,1.13s.31,1.14.69,1.14h120.27c.38,0,.69-.51.69-1.14S1285.61,924.7,1285.23,924.7Z"/><path class="f4793e6c-2142-4340-90e5-35d9a8a7987b" d="M1285.23,917.31H1165c-.38,0-.69.5-.69,1.13s.31,1.14.69,1.14h120.27c.38,0,.69-.51.69-1.14s-.31-1.13-.69-1.13Z"/><path class="f4793e6c-2142-4340-90e5-35d9a8a7987b" d="M1285.23,909.92H1165c-.38,0-.69.51-.69,1.13s.31,1.14.69,1.14h120.27c.38,0,.69-.51.69-1.14s-.31-1.13-.69-1.13Z"/></g><polygon class="e9dac3eb-3a60-407a-b441-e8f44b8f32d0" points="1023.23 884.76 1038.34 884.76 1045.52 830.3 1023.23 830.3 1023.23 884.76"/><polygon class="e9dac3eb-3a60-407a-b441-e8f44b8f32d0" points="953.8 914.72 968.9 914.72 976.09 860.26 953.8 860.26 953.8 914.72"/><path class="beb9574f-837f-46a2-afc8-27aff93f6524" d="M1004.59,594.14l54.73,108.92,6.29,17.22-19,120.85-30.71-1.31.07-15.49s7.31-3.45,0-5.33-7-6.63.06-13.64.33-74.12.33-74.12-29-24.16-25.82-30.47-2.71-6.31-2.71-6.31-6.24-1-6.48-3.62-4.87-8-4.87-8L978.09,869h-26.5s-12.11-17.52-9.73-21.3,5.71-4.14,0-8.65-14.1-.82-10.35-9.31,2.78-100.2,2.78-100.2-14.75-53.22-5.64-56.83,4.58-3.11-.8-8.06,3.75-4.49-.81-8.24-4.75-47.86-4.75-47.86Z"/><path class="b27e8719-455b-431e-b5b4-d34857d29131" d="M917.42,626.4c38.93-.09,72.34,7.89,111.27,7.81-2.53-16-11.4-41.11-13.93-57.13-3.57-22.52-.81-36-4.36-58.49q-.54-3.32-1-6.61c-1.41-8.91,2-17.81-4.08-27.22-2.57-4-6.85-8.1-13.94-12.33-14.73,1.36-14.47-4.69-29.2-3.33L957.26,478a55.48,55.48,0,0,1-5.89,7.2c-7.73,8-11.41,6.89-16.71,13-6.39,7.34-7.59,16.43-8,19.69a41.42,41.42,0,0,0,0,10.74c1,8.36-.15,26-8.6,65.17,5.53,6,6.14,9.91,5.47,12.48-1,4-6.28,6-5,10.21C919.39,619.34,920.27,622.1,917.42,626.4Z"/><path class="e9dac3eb-3a60-407a-b441-e8f44b8f32d0" d="M1096.58,643.84c-6.69-.37-10.8-5.32-9.2-11,0-.19.11-.37.17-.55a1.58,1.58,0,0,0-.61-1.84l-40.87-28.8a1.56,1.56,0,0,1-.44-2.21l7.35-10.72a2,2,0,0,1,2.8-.44l49,35.18a1.87,1.87,0,0,0,.57.27c5.88,1.8,8.19,7.51,5.13,12.88-2.6,4.58-8.37,7.58-14,7.27Z"/><path class="b27e8719-455b-431e-b5b4-d34857d29131" d="M934.75,498.2c-5.56,4.11-7.52,13.37-4.47,18.48l.16.26,42.29,49.86,1.4,1.65a1.74,1.74,0,0,0,.51.42l79.74,44.43c1.81,1,3.82-1,2.47-2.5a1.56,1.56,0,0,1-.16-1.92l7.1-10.77,2.82-4.29a1.58,1.58,0,0,0-.58-2.26l-49.47-29.48a1.82,1.82,0,0,1-.45-.38L1000,542.88,969.17,507l-.9-1a1.79,1.79,0,0,0-.76-.49c-6.58-2.38-13.16-8.1-20.54-9.28C943.47,495.61,938.73,495.26,934.75,498.2Z"/><ellipse class="e9dac3eb-3a60-407a-b441-e8f44b8f32d0" cx="984.5" cy="441.42" rx="27.02" ry="25.26"/><path class="beb9574f-837f-46a2-afc8-27aff93f6524" d="M988.34,463.14l-2.2,6.58c-4.88-2.26-18.73-5.38-22.79-8.77s-7.21-8.05-7.4-13.14c-.1-2.63.58-5.28.11-7.87-.53-2.93-2.46-5.46-3.34-8.32a13,13,0,0,1,7.65-15.31c4.48-1.84,9.6-1.33,14.47-1.77s10.31-2.51,11.68-6.9c.51-1.64.45-3.57,2-4.65a4,4,0,0,1,5.08.69l.21.23c4.12,4.83,11.89,5.19,16,.32.26-.32.52-.65.76-1A7.9,7.9,0,0,1,1011,415l-.06.06a6.76,6.76,0,0,0,6.65-4.9c1.86,2.41,3.78,4.92,4.38,7.84s-.52,6.37-3.38,7.66a11.59,11.59,0,0,1-4.6.71c7.39,8.17,2.95,7.93-12,.21-7.42.13-4.49,6.58-4.59,13.52h0c-3.49-.31-7.09-.62-10.39.76a7.85,7.85,0,0,0-3.71,3c-2.18,3.51,0,7.15,1.91,10.34,1.64,2.73,3.19,6,1.83,8.87"/><path class="e9dac3eb-3a60-407a-b441-e8f44b8f32d0" d="M1055.4,661.21c.1-5.36-4.79-10-10.93-10.25a11.76,11.76,0,0,0-1.78,0l-28.83-42.33-15.05,3.62,34.66,50.07c1.33,5.28,7.26,8.78,13.24,7.83,5-.79,8.6-4.51,8.69-9Z"/><path class="b27e8719-455b-431e-b5b4-d34857d29131" d="M974.88,473.58l5.78,96.8,18.09,45.46L1025,652.71c.83,1,2.65.34,2.4-.91l-1.09-5.41,13-6.07,1.22-.57-17.28-40.94L1018,586.46l-2.43-37.17-2.3-35.16a42.92,42.92,0,0,0-17.21-31.31l-14.42-11-3.33-1A2.68,2.68,0,0,0,974.88,473.58Z"/><path class="beb9574f-837f-46a2-afc8-27aff93f6524" d="M1022.7,899.49h46.45v-.55c0-9.33-8.1-16.9-18.08-16.9h0l-8.49-6-15.82,6h-4.06Z"/><path class="beb9574f-837f-46a2-afc8-27aff93f6524" d="M953.27,929.45h46.44v-.55c0-9.33-8.09-16.9-18.07-16.9h0l-8.48-6-15.83,6h-4.05Z"/><path id="e5ec06f5-6d76-4fa4-8488-d9ea70a26360" data-name="Line" class="f4793e6c-2142-4340-90e5-35d9a8a7987b" d="M754,939.3a3.84,3.84,0,1,1,0-7.67l244.75-1.28h0a3.84,3.84,0,1,1,0,7.67L754,939.3Z"/><path id="a56eedc2-4a87-470d-a770-58c31b4581c5" data-name="aa45fc53-812a-4d29-b97e-7f1282d3d680-466" class="b27e8719-455b-431e-b5b4-d34857d29131" d="M1686.86,901.88l104.43,1.38,2.16,50.46-7.79,57.17,5.63,68.17h-107.4a354.68,354.68,0,0,0-6.82-128Q1682,926.49,1686.86,901.88Z"/><path id="a0584d77-2f62-4ac0-ba23-bfd0657bf583" data-name="ab28f9f1-3872-4572-9db3-fdc0c2b56930-467" class="a3231044-521f-4e85-aab0-27ba9edb06fc" d="M1904.25,778.86c2.84,7.72-1.65,16.23-10,19a17,17,0,0,1-2.75.67l-82.38,113.21-25-22,88.86-104.37c-.75-8.2,5.84-15.55,14.71-16.41,7.42-.71,14.31,3.36,16.65,9.87Z"/><path id="e5b62281-236b-40ef-af25-06bd99751d94" data-name="e38d1f50-71d2-4502-a947-37a79b1baefe-468" class="b27e8719-455b-431e-b5b4-d34857d29131" d="M1828.36,898.14a6.4,6.4,0,0,1-1.74,5.33l-23.95,25.45c-6,8.68-18.36,11.36-27.62,6s-11.89-16.78-5.89-25.46l15.14-30.73a7.55,7.55,0,0,1,9.53-3.45,6.69,6.69,0,0,1,.93.46l30.41,17.79a6.5,6.5,0,0,1,3.2,4.63Z"/><path id="b762d790-e337-4c72-92e8-f4635367d52d" data-name="a4438e3b-f1f0-4fb4-883b-23c73ca92a93-469" class="a3231044-521f-4e85-aab0-27ba9edb06fc" d="M1574.81,774.13c8-1.32,15.65,4.76,17,13.57a18,18,0,0,1,.2,2.84l97.23,103.09-25.78,20.46L1576,806.32c-8.17-.85-14.27-8.76-13.62-17.67.54-7.46,5.7-13.47,12.48-14.52Z"/><path id="be397c2e-3855-4919-94e1-a85533d40d79" data-name="a8ffa943-ba12-47ea-a3ce-887fe10517d1-470" class="b27e8719-455b-431e-b5b4-d34857d29131" d="M1679.08,872a6.54,6.54,0,0,1,4.94,2.75l21,28.52a21.46,21.46,0,0,1,1.38,28.39,17.28,17.28,0,0,1-26,1.07v0l-.16-.15-27.62-20.86a7.71,7.71,0,0,1-1.77-10.07,6.89,6.89,0,0,1,.6-.82L1674,874.24a6.24,6.24,0,0,1,5.08-2.26Z"/><ellipse id="bb60455a-61fa-4b36-9820-9a6dfe618c84" data-name="b8db2fb6-f3e1-4f6c-8969-65ed1b7fc810" class="b5145d07-2df2-4d6d-b158-e512416cce1a" cx="1737.99" cy="840.57" rx="40.54" ry="37.44"/><ellipse id="b22bfb10-bea1-4e7f-8f91-db28daf10487" data-name="b8556b8d-ea4d-44f1-881d-63b03cbd5c82" class="a3231044-521f-4e85-aab0-27ba9edb06fc" cx="1734.15" cy="864.21" rx="36.7" ry="33.9"/><path id="efd86846-7be7-401c-860d-47037ce18914" data-name="b12de61e-1204-4bc3-8fe3-5af6696e169c-471" class="b5145d07-2df2-4d6d-b158-e512416cce1a" d="M1759.15,773.92a22.28,22.28,0,0,1-12.79,8.11c-8.94,2.22-.07,14.63-.07,14.63s-3.23-4.52,1.42-9.3S1759.85,779.32,1759.15,773.92Z"/><ellipse id="e26fabca-6ac9-40e1-8261-e9961a4c4686" data-name="b3381070-dd63-42ff-a7f2-d7b052b00dac" class="b5145d07-2df2-4d6d-b158-e512416cce1a" cx="1744.7" cy="799.63" rx="11.3" ry="10.44"/><path id="a70ffc26-df53-44d6-9419-f2850926927c" data-name="a59edb5f-8afb-4734-b526-6942bc6c3436-472" class="b27e8719-455b-431e-b5b4-d34857d29131" d="M1761.58,808.38c-9.21-3.22-24.54-4.85-32.43-3.73l1.08-7.3c7.59,3.62,22.85,5.32,32.44,3.73Z"/><path id="e56ec008-39f1-4b91-b7f9-2fa6d6a1c70f" data-name="a799e502-b5ec-41bb-ac2d-d7f36e72d183-473" class="b5145d07-2df2-4d6d-b158-e512416cce1a" d="M1740.3,809.74s-11.54,17.74-38.38,24.38-.22,43.89-.22,43.89-9.68-13.55,4.28-27.89S1742.42,826,1740.3,809.74Z"/><path id="bf690f94-71fb-4793-a621-7127e278931b" data-name="b966a1bb-b26c-4365-9b42-58e2bab2452b-474" class="b5145d07-2df2-4d6d-b158-e512416cce1a" d="M1744.68,809.91s11.09,24.36,23.26,26.66,11.25,40.8-7.79,46.57c0,0,13.89-22.57,2-37.7S1742.81,818.35,1744.68,809.91Z"/><path class="b27e8719-455b-431e-b5b4-d34857d29131" d="M1738,834.57a105.78,105.78,0,0,1-38.27-4.68,3.52,3.52,0,0,1-2.6-3l-2.1-28.19a3.75,3.75,0,0,1,3.75-3.74l72.19-4.77a3.82,3.82,0,0,1,4.27,3.22l2.1,28.18a3.44,3.44,0,0,1-2.13,3.33h0A104.78,104.78,0,0,1,1738,834.57Z"/><path class="b27e8719-455b-431e-b5b4-d34857d29131" d="M1736.24,811.74a4.36,4.36,0,0,1-1.57-.17l-58.81-17.19a3.36,3.36,0,0,1-2.47-4.42,3.74,3.74,0,0,1,2.13-2.05l55.84-22.64a4.52,4.52,0,0,1,2.86-.18l57.88,15.12a3.4,3.4,0,0,1,2.64,4.35,3.71,3.71,0,0,1-2,2.1l-54.92,24.7A4.31,4.31,0,0,1,1736.24,811.74Z"/><ellipse class="b5145d07-2df2-4d6d-b158-e512416cce1a" cx="1702" cy="822.24" rx="5.39" ry="5.32" transform="translate(90 1809.33) rotate(-57.27)"/><path class="a746a5cc-7f84-4a66-b967-4edb378b52ff" d="M1792.69,783.67l-54.92,24.7a4,4,0,0,1-2.78.19l-58.81-17.19a3.48,3.48,0,0,1-1.8-1.19,2.92,2.92,0,0,0,1.62,4.14l.41.14,58.81,17.19a4.07,4.07,0,0,0,2.79-.19l54.91-24.7a2.94,2.94,0,0,0,1.58-4.18,2.2,2.2,0,0,0-.21-.32A3.36,3.36,0,0,1,1792.69,783.67Z"/><path class="b5145d07-2df2-4d6d-b158-e512416cce1a" d="M1732.84,787.85a1.39,1.39,0,0,0-1.62-.39l-29.4,10.65h0a.87.87,0,0,0-.54.35.71.71,0,0,0-.17.7v23.07a.89.89,0,1,0,1.78,0V799.68l29.31-10.62C1732.82,788.83,1733.11,788.29,1732.84,787.85Z"/><path class="b25ddc99-1f0a-4278-9db9-8c2d9bf7310d" d="M1235.24,290.7h-20.35c-2.93,0-5-.65-6.29-2s-1.88-3.41-1.88-6.29v-50q0-4.41,1.93-6.34c1.29-1.28,3.37-1.93,6.24-1.93h21.57a50.78,50.78,0,0,1,8.27.59A17.66,17.66,0,0,1,1251,227a16.35,16.35,0,0,1,4.18,3.57,15.67,15.67,0,0,1,2.77,4.77,15.85,15.85,0,0,1,1,5.51q0,10-10,14.63,13.11,4.17,13.12,16.25a18.23,18.23,0,0,1-2.86,10.06,17.24,17.24,0,0,1-7.72,6.61,27.46,27.46,0,0,1-7,1.79A71.08,71.08,0,0,1,1235.24,290.7Zm-15-56.44v17.21h12.35a25,25,0,0,0,7.79-.95,7.46,7.46,0,0,0,4.2-3.64,8.23,8.23,0,0,0,1.13-4.27c0-3.36-1.19-5.59-3.59-6.69s-6-1.66-10.94-1.66Zm14,26.88h-14v19.44h14.48q13.66,0,13.67-9.86c0-3.36-1.18-5.79-3.54-7.31S1238.93,261.14,1234.24,261.14Z"/><path class="b25ddc99-1f0a-4278-9db9-8c2d9bf7310d" d="M1285.14,274V284.3c0,2.51-.59,4.4-1.77,5.65a5.89,5.89,0,0,1-4.49,1.89,5.69,5.69,0,0,1-4.41-1.91,8.14,8.14,0,0,1-1.72-5.63V249.79q0-8.35,6-8.36a5,5,0,0,1,4.45,2,10.82,10.82,0,0,1,1.49,5.76,21.79,21.79,0,0,1,4.57-5.76,9.38,9.38,0,0,1,6.24-2,16,16,0,0,1,7.59,2q3.67,2,3.67,5.17a5.2,5.2,0,0,1-5,5.23,15.26,15.26,0,0,1-3.29-.85,15.64,15.64,0,0,0-4.61-.84,6.72,6.72,0,0,0-4.45,1.44,9.16,9.16,0,0,0-2.68,4.24,29.89,29.89,0,0,0-1.31,6.7C1285.26,267.07,1285.14,270.22,1285.14,274Z"/><path class="b25ddc99-1f0a-4278-9db9-8c2d9bf7310d" d="M1319.84,235.67a6.53,6.53,0,0,1-4.43-1.59,6.18,6.18,0,0,1,0-8.84,6.37,6.37,0,0,1,4.39-1.7,6.48,6.48,0,0,1,4.26,1.55,5.5,5.5,0,0,1,1.87,4.49,5.66,5.66,0,0,1-1.82,4.47A6.26,6.26,0,0,1,1319.84,235.67Zm6.13,12.8V284.3a8,8,0,0,1-1.77,5.63,5.89,5.89,0,0,1-4.5,1.91,5.61,5.61,0,0,1-4.43-1.95,8.3,8.3,0,0,1-1.7-5.59V248.84a8,8,0,0,1,1.7-5.54,5.71,5.71,0,0,1,4.43-1.87,5.93,5.93,0,0,1,4.5,1.87A7.19,7.19,0,0,1,1326,248.47Z"/><path class="b25ddc99-1f0a-4278-9db9-8c2d9bf7310d" d="M1372.74,284.75v-1.22a31.26,31.26,0,0,1-4.93,4.65,18.36,18.36,0,0,1-5.27,2.73,19.74,19.74,0,0,1-6.19.93,18.25,18.25,0,0,1-8.25-1.89,19.27,19.27,0,0,1-6.56-5.38,24.57,24.57,0,0,1-4.2-8.22,35.14,35.14,0,0,1-1.43-10.21q0-11.62,5.68-18.12t14.94-6.5a20.12,20.12,0,0,1,9,1.84,25.07,25.07,0,0,1,7.18,5.66v-18.3a9.28,9.28,0,0,1,1.52-5.77,5.17,5.17,0,0,1,4.34-1.95,5.38,5.38,0,0,1,4.33,1.79,8,8,0,0,1,1.53,5.29v54.67a7.6,7.6,0,0,1-1.64,5.32,5.49,5.49,0,0,1-4.22,1.77,5.38,5.38,0,0,1-4.2-1.84A7.55,7.55,0,0,1,1372.74,284.75Zm-24.39-18.2a21.21,21.21,0,0,0,1.57,8.58,11.86,11.86,0,0,0,4.29,5.33,10.59,10.59,0,0,0,6,1.8,10.93,10.93,0,0,0,6-1.71,11.7,11.7,0,0,0,4.32-5.22,21.13,21.13,0,0,0,1.61-8.78,20.66,20.66,0,0,0-1.61-8.52,12.85,12.85,0,0,0-4.36-5.45,10.48,10.48,0,0,0-6-1.88,10.15,10.15,0,0,0-6.09,1.93,12.34,12.34,0,0,0-4.15,5.54A22.08,22.08,0,0,0,1348.35,266.55Z"/><path class="b25ddc99-1f0a-4278-9db9-8c2d9bf7310d" d="M1442.49,250.52v36a37.65,37.65,0,0,1-1.32,10.62,17,17,0,0,1-4.22,7.36,17.68,17.68,0,0,1-7.61,4.31,41.27,41.27,0,0,1-11.69,1.41,34.13,34.13,0,0,1-11.44-1.79,19.77,19.77,0,0,1-7.77-4.64,8.45,8.45,0,0,1-2.72-5.83,4.81,4.81,0,0,1,1.54-3.7,5.25,5.25,0,0,1,3.72-1.43,6.11,6.11,0,0,1,4.77,2.4c.67.82,1.36,1.65,2.07,2.48a12.14,12.14,0,0,0,2.36,2.13,9.27,9.27,0,0,0,3.11,1.32,18,18,0,0,0,4.18.43,16.8,16.8,0,0,0,7.47-1.34,7.63,7.63,0,0,0,3.72-3.74,15.14,15.14,0,0,0,1.25-5.16q.18-2.75.27-8.83a20.35,20.35,0,0,1-6.6,6.08,18,18,0,0,1-8.93,2.09,18.78,18.78,0,0,1-10.87-3.18,20.13,20.13,0,0,1-7.15-8.9,32.63,32.63,0,0,1-2.5-13.21,31.2,31.2,0,0,1,1.52-10.08,21.06,21.06,0,0,1,4.33-7.58,18.71,18.71,0,0,1,6.5-4.66,20.5,20.5,0,0,1,8.08-1.57,19.4,19.4,0,0,1,9.13,2,22.08,22.08,0,0,1,7.17,6.33V248.2a7.25,7.25,0,0,1,1.59-5,5.26,5.26,0,0,1,4.09-1.77q3.59,0,4.77,2.34A15.47,15.47,0,0,1,1442.49,250.52Zm-35.92,15.71q0,7.53,3.29,11.4a10.69,10.69,0,0,0,8.52,3.86,11.16,11.16,0,0,0,5.83-1.66,12.18,12.18,0,0,0,4.47-5,17.44,17.44,0,0,0,1.73-8.1q0-7.59-3.34-11.81a10.63,10.63,0,0,0-8.78-4.22,10.31,10.31,0,0,0-8.52,4Q1406.58,258.77,1406.57,266.23Z"/><path class="b25ddc99-1f0a-4278-9db9-8c2d9bf7310d" d="M1487.31,269.68h-24.25a16.55,16.55,0,0,0,1.7,7.45,11.44,11.44,0,0,0,10.47,6.49,14.74,14.74,0,0,0,4.06-.52,13.34,13.34,0,0,0,3.57-1.64,26.87,26.87,0,0,0,3.18-2.38q1.44-1.27,3.77-3.45a4,4,0,0,1,2.72-.82,4.53,4.53,0,0,1,3.09,1,3.74,3.74,0,0,1,1.18,3,8,8,0,0,1-1.32,3.92,15.65,15.65,0,0,1-4,4.32,22.62,22.62,0,0,1-6.68,3.43,29,29,0,0,1-9.24,1.36q-11.94,0-18.57-6.81t-6.63-18.48a30.82,30.82,0,0,1,1.63-10.2,22.49,22.49,0,0,1,4.77-8.06,20.59,20.59,0,0,1,7.72-5.15,27.64,27.64,0,0,1,10.17-1.8,24.07,24.07,0,0,1,12.47,3.07,20.14,20.14,0,0,1,7.79,7.92,20.91,20.91,0,0,1,2.59,9.9c0,3.12-.9,5.14-2.68,6.06A16.62,16.62,0,0,1,1487.31,269.68Zm-24.25-7h22.48q-.46-6.36-3.43-9.51a10.25,10.25,0,0,0-7.83-3.16,9.94,9.94,0,0,0-7.61,3.2Q1463.7,256.38,1463.06,262.64Z"/></svg>